<svg xmlns="http://www.w3.org/2000/svg" viewBox="0 0 595.16 845.55"><g id="b2a2a"><rect width="595.16" height="845.55" fill="#2a2a2a"/></g><g id="full_låda" data-name="full låda"><path d="M165.69,33.18c-7.84,7.83-8.49,16.37-6,22a1.34,1.34,0,0,1-.32,1.6L118.14,93.4c-3.48,3.09-3.32,6.78.09,10.2s7.1,3.57,10.2.08l36.62-41.21a1.35,1.35,0,0,1,1.61-.32c5.62,2.47,14.16,1.82,22-6,8.28-8.28,10.28-20.36,3.83-26.8S174,24.9,165.69,33.18Z" transform="translate(0 3.66)" fill="#9896f1"/><path d="M133.7,61.69a1.12,1.12,0,0,1,1.53.18l5.8,6.52,6.79-6L140.9,56.2a1.11,1.11,0,0,1-.18-1.52c3.66-5.62,1.7-11.47-3.55-15.88L120.33,25a2.14,2.14,0,0,0-3.16,0,2.09,2.09,0,0,0,0,3.16l13.94,13.94a2.21,2.21,0,0,1,0,3.33l-.08.08a2.21,2.21,0,0,1-3.34,0L113.75,31.57a2.23,2.23,0,0,0-3.16,3.16l13.94,13.94a2.21,2.21,0,0,1,0,3.33l-.08.08a2.21,2.21,0,0,1-3.34,0L107.17,38.14a2.09,2.09,0,0,0-3.16,0,2.16,2.16,0,0,0,0,3.17l13.81,16.84C122.23,63.4,128.09,65.35,133.7,61.69Z" transform="translate(0 3.66)" fill="#9896f1"/><path d="M182.71,93.4,160.1,73.29l-7.35,8.27,19.68,22.12c3.1,3.49,6.78,3.32,10.19-.09S186.19,96.5,182.71,93.4Z" transform="translate(0 3.66)" fill="#9896f1"/><path d="M241.33,120.52c-15.09,1.49-26.8-11.27-32.44-25.67-6.6-16.88-6-33.82,2-50.15,4.25-8.72,10.51-15.53,20.16-19,16.16-5.79,30.5-.61,43.59,7.85,7.3,4.71,11.91,12.7,14.85,21.35,1.51,4.43,4.72,8.26,6.48,12.63,1,2.57,2.09,6.94.8,8.31-5.06,5.35-4.8,12.46-7.39,18.55a39.5,39.5,0,0,1-14.22,17.67C265.64,118.7,255,119.78,241.33,120.52Zm31.33-49.59c-.19-1.8-.37-5.19-.93-8.53-2-11.78-6.47-22.7-16.52-29.45-15.28-10.26-30.9-3.78-39.49,11.56-9.13,16.31-9.51,33.49-2.28,50.73a35.21,35.21,0,0,0,21.29,20.21c7.35,2.62,21.62-3,26.63-9.69C268.72,95.89,272.42,84.8,272.66,70.93Zm-11.3-39.55a59.26,59.26,0,0,1,15.17,41.16c-.23,15.68-5,29.49-16.82,40.69,15.81-2.83,26.06-13.65,28.57-29.41.39-2.51,2.27-4.76,3.18-7.23.75-2,2.15-5.61,1.44-6.16-5.54-4.27-5.63-11-8.13-16.54C280,43.25,272.59,35.38,261.36,31.38Z" transform="translate(0 3.66)" fill="#9896f1"/><path d="M227.15,73.52c1.78,0,3.56,0,5.34,0,5.46-.11,6.16.89,4.17,5.8-2.41,6-4.72,12-7.16,17.91-1.74,4.25-3.2,4.63-6.05,1.17a38,38,0,0,1-8.52-20.64c-.27-2.6.94-4.21,4-4,2.74.19,5.5,0,8.25,0Zm-8.21,5.28,5.8,14.67,1.71-.2,5.78-14.47Z" transform="translate(0 3.66)" fill="#9896f1"/><path d="M240.53,107.34a46.65,46.65,0,0,1-6.79-1.44c-3.21-1.2-4.82-3.14-3.07-7,2.71-6,4.86-12.18,7.43-18.22.49-1.15,1.82-2,2.77-2.91.84.9,2,1.66,2.47,2.72q4.41,9.6,8.56,19.33c1.63,3.83-2.14,4.67-4.07,5.8C245.74,106.86,242.91,106.84,240.53,107.34Zm.29-22.26-6.55,16h13.61Z" transform="translate(0 3.66)" fill="#9896f1"/><path d="M255.56,72.8c1,0,1.94,0,2.9,0,9-.06,9.49.21,7.07,8.69a72.28,72.28,0,0,1-6.87,15.67c-2.28,4-4.47,3.49-6.3-.72-2.6-6-5.28-12-7.89-18-1.71-3.93-.88-5.29,3.37-5.47,2.57-.11,5.15,0,7.72,0Zm7,5.49H249l6.52,14.39,1.65.1Z" transform="translate(0 3.66)" fill="#9896f1"/><path d="M242.74,69.7c2.67-6.79,4.95-12.88,7.47-18.87,1.15-2.71,2.78-5.22,4.2-7.81,2.11,2.29,5,4.26,6.17,7a117.68,117.68,0,0,1,5.49,16.29c.26.92-1,3.26-1.57,3.28C257.63,69.79,250.75,69.7,242.74,69.7Zm13.67-19.54-1.51.17-6.16,15.29h13.6Z" transform="translate(0 3.66)" fill="#9896f1"/><path d="M251.79,41.64c-2.18,5.54-4.08,10.47-6.06,15.38-1,2.53-2.08,5-3.29,7.49a11,11,0,0,1-2,2.26,11.89,11.89,0,0,1-1.95-2.34c-2.89-6.08-5.63-12.23-8.53-18.31-1.87-3.92-1.08-6.91,3.41-7.27a105.13,105.13,0,0,1,15.56.35C249.93,39.28,250.84,40.8,251.79,41.64Zm-4.37,0-14.5.68,7.52,16.72Z" transform="translate(0 3.66)" fill="#9896f1"/><path d="M226.51,43c3.69,8.32,7.3,16.25,10.59,24.31.26.64-1.63,3.06-2.62,3.13a154.22,154.22,0,0,1-16.93.2c-1-.05-2.8-2.2-2.69-3.22C215.81,58.37,218.71,50.08,226.51,43Zm-.88,8-1.31-.38c-1.95,5.16-3.9,10.33-5.94,15.71h14.11C230,60.76,227.8,55.9,225.63,51Z" transform="translate(0 3.66)" fill="#9896f1"/><path d="M361.39,33.18c-7.83,7.83-8.48,16.37-6,22a1.34,1.34,0,0,1-.32,1.6L313.85,93.4c-3.49,3.09-3.33,6.78.09,10.2s7.1,3.57,10.2.08l36.62-41.21a1.35,1.35,0,0,1,1.61-.32c5.61,2.47,14.15,1.82,22-6,8.27-8.28,10.27-20.36,3.83-26.8S369.67,24.9,361.39,33.18Z" transform="translate(0 3.66)" fill="#9896f1"/><path d="M329.41,61.69a1.11,1.11,0,0,1,1.52.18l5.81,6.52,6.78-6-6.91-6.16a1.11,1.11,0,0,1-.18-1.52c3.66-5.62,1.7-11.47-3.55-15.88L316,25a2.14,2.14,0,0,0-3.16,0,2.09,2.09,0,0,0,0,3.16l13.93,13.94a2.19,2.19,0,0,1,0,3.33l-.07.08a2.21,2.21,0,0,1-3.34,0L309.46,31.57a2.23,2.23,0,0,0-3.16,3.16l13.93,13.94a2.19,2.19,0,0,1,0,3.33l-.07.08a2.21,2.21,0,0,1-3.34,0L302.88,38.14a2.09,2.09,0,0,0-3.16,0,2.15,2.15,0,0,0,0,3.17l13.81,16.84C317.94,63.4,323.79,65.35,329.41,61.69Z" transform="translate(0 3.66)" fill="#9896f1"/><path d="M378.42,93.4,355.81,73.29l-7.35,8.27,19.68,22.12c3.09,3.49,6.78,3.32,10.19-.09S381.9,96.5,378.42,93.4Z" transform="translate(0 3.66)" fill="#9896f1"/><path d="M437.3,122.08c-15.1,1.5-26.8-11.26-32.44-25.67-6.61-16.87-6-33.82,2-50.15,4.25-8.71,10.51-15.53,20.16-19,16.16-5.79,30.5-.61,43.59,7.85,7.3,4.72,11.91,12.71,14.85,21.36,1.51,4.43,4.72,8.26,6.49,12.63,1,2.57,2.08,6.94.8,8.3-5.07,5.36-4.81,12.47-7.4,18.56a39.54,39.54,0,0,1-14.21,17.67C461.6,120.27,450.94,121.35,437.3,122.08ZM468.62,72.5c-.19-1.8-.37-5.2-.92-8.53-2-11.79-6.48-22.7-16.53-29.45-15.28-10.27-30.9-3.78-39.49,11.56-9.13,16.3-9.51,33.49-2.28,50.72A35.2,35.2,0,0,0,430.7,117c7.34,2.62,21.61-3,26.62-9.69C464.68,97.45,468.38,86.36,468.62,72.5ZM457.32,33A59.25,59.25,0,0,1,472.49,74.1c-.22,15.69-5,29.5-16.81,40.69,15.8-2.82,26.05-13.65,28.56-29.41.4-2.51,2.27-4.75,3.18-7.22.75-2,2.15-5.62,1.44-6.16-5.54-4.28-5.63-11-8.13-16.55C476,44.81,468.55,37,457.32,33Z" transform="translate(0 3.66)" fill="#9896f1"/><path d="M423.11,75.09c1.78,0,3.56,0,5.34,0,5.46-.1,6.16.89,4.17,5.81-2.41,6-4.72,12-7.16,17.9-1.74,4.25-3.19,4.64-6,1.18a38.09,38.09,0,0,1-8.52-20.65c-.27-2.59.94-4.21,4-4,2.73.18,5.49,0,8.24,0Zm-8.21,5.27L420.7,95l1.71-.19,5.78-14.48Z" transform="translate(0 3.66)" fill="#9896f1"/><path d="M436.49,108.9a45.23,45.23,0,0,1-6.78-1.44c-3.22-1.2-4.83-3.13-3.08-7,2.72-6,4.86-12.19,7.43-18.22.49-1.16,1.83-2,2.77-2.92.84.9,2,1.66,2.47,2.73q4.43,9.6,8.56,19.32c1.63,3.84-2.13,4.67-4.07,5.81C441.7,108.43,438.88,108.4,436.49,108.9Zm.29-22.26c-2.43,5.94-4.34,10.58-6.55,16h13.61Z" transform="translate(0 3.66)" fill="#9896f1"/><path d="M451.53,74.37h2.9c9-.07,9.48.2,7.06,8.68a72.07,72.07,0,0,1-6.87,15.67c-2.28,4-4.47,3.5-6.29-.71-2.61-6-5.29-12-7.9-18-1.7-3.92-.88-5.28,3.37-5.46,2.57-.11,5.15,0,7.73,0Zm7,5.49H444.92l6.52,14.39,1.66.1C454.84,89.66,456.59,85,458.5,79.86Z" transform="translate(0 3.66)" fill="#9896f1"/><path d="M438.7,71.27c2.67-6.8,4.95-12.89,7.48-18.87,1.14-2.71,2.78-5.22,4.19-7.82,2.11,2.3,5,4.26,6.18,7A119,119,0,0,1,462,67.83c.27.92-1,3.27-1.56,3.29C453.6,71.35,446.72,71.27,438.7,71.27Zm13.67-19.55-1.51.18L444.7,67.18h13.6Z" transform="translate(0 3.66)" fill="#9896f1"/><path d="M447.75,43.21c-2.18,5.54-4.08,10.47-6.06,15.37-1,2.53-2.08,5.05-3.29,7.5a11.49,11.49,0,0,1-2,2.26,11.94,11.94,0,0,1-2-2.35c-2.89-6.08-5.62-12.23-8.53-18.3-1.87-3.93-1.08-6.91,3.41-7.27a103.75,103.75,0,0,1,15.56.35C445.89,40.84,446.81,42.37,447.75,43.21Zm-4.37,0-14.5.69,7.52,16.72C438.8,54.69,440.78,49.75,443.38,43.25Z" transform="translate(0 3.66)" fill="#9896f1"/><path d="M422.47,44.6c3.69,8.33,7.3,16.26,10.59,24.32.26.63-1.62,3.06-2.61,3.13a154.4,154.4,0,0,1-16.94.19c-1,0-2.79-2.2-2.69-3.22C411.77,59.94,414.67,51.64,422.47,44.6Zm-.88,8-1.31-.39-5.94,15.72h14.11C425.94,62.33,423.77,57.47,421.59,52.61Z" transform="translate(0 3.66)" fill="#9896f1"/><path d="M559,37.63c-7.83,7.84-8.49,16.38-6,22a1.34,1.34,0,0,1-.32,1.6L511.5,97.85c-3.49,3.1-3.33,6.79.08,10.2s7.1,3.58,10.2.09L558.4,66.92A1.38,1.38,0,0,1,560,66.6c5.62,2.48,14.16,1.83,22-6,8.28-8.27,10.28-20.35,3.84-26.79S567.32,29.36,559,37.63Z" transform="translate(0 3.66)" fill="#9896f1"/><path d="M527.06,66.15a1.12,1.12,0,0,1,1.52.17l5.8,6.53,6.79-6-6.92-6.16a1.12,1.12,0,0,1-.17-1.52c3.66-5.62,1.7-11.48-3.55-15.89l-16.84-13.8a2.15,2.15,0,0,0-3.17,0,2.1,2.1,0,0,0,0,3.17l13.94,13.93a2.22,2.22,0,0,1,0,3.34l-.08.08A2.22,2.22,0,0,1,521,50L507.11,36A2.24,2.24,0,1,0,504,39.19l13.93,13.93a2.21,2.21,0,0,1,0,3.34l-.08.08a2.22,2.22,0,0,1-3.34,0L500.53,42.6a2.09,2.09,0,0,0-3.16,0,2.14,2.14,0,0,0,0,3.17l13.8,16.84C515.58,67.86,521.44,69.81,527.06,66.15Z" transform="translate(0 3.66)" fill="#9896f1"/><path d="M576.06,97.86l-22.6-20.11L546.1,86l19.68,22.12c3.1,3.49,6.78,3.32,10.2-.09S579.55,101,576.06,97.86Z" transform="translate(0 3.66)" fill="#9896f1"/><path d="M42.57,113.83c-15.1,1.5-26.8-11.26-32.44-25.67-6.6-16.87-6-33.82,2-50.15,4.25-8.71,10.51-15.53,20.15-19,16.16-5.79,30.51-.61,43.6,7.85,7.3,4.72,11.91,12.71,14.85,21.36,1.5,4.43,4.72,8.26,6.48,12.63,1,2.57,2.09,6.94.8,8.3-5.06,5.36-4.8,12.47-7.39,18.56A39.56,39.56,0,0,1,76.4,105.39C66.88,112,56.22,113.1,42.57,113.83ZM73.89,64.25c-.19-1.8-.36-5.2-.92-8.53C71,43.93,66.49,33,56.45,26.27,41.17,16,25.55,22.49,17,37.83,7.83,54.14,7.44,71.32,14.68,88.56A35.2,35.2,0,0,0,36,108.76c7.34,2.62,21.62-3,26.63-9.69C70,89.2,73.66,78.11,73.89,64.25ZM62.6,24.7A59.2,59.2,0,0,1,77.76,65.85c-.22,15.69-5,29.5-16.81,40.69C76.76,103.72,87,92.89,89.51,77.13c.4-2.51,2.28-4.75,3.19-7.22.75-2,2.15-5.62,1.44-6.16-5.54-4.28-5.63-11-8.13-16.55C81.24,36.57,73.83,28.7,62.6,24.7Z" transform="translate(0 3.66)" fill="#9896f1"/><path d="M28.39,66.84c1.78,0,3.56,0,5.33,0,5.47-.1,6.17.89,4.18,5.81-2.41,6-4.73,12-7.16,17.9-1.75,4.26-3.2,4.64-6,1.18a38,38,0,0,1-8.52-20.65c-.27-2.59.93-4.21,4-4,2.74.18,5.5,0,8.25,0Zm-8.22,5.27L26,86.78l1.7-.19c1.9-4.74,3.79-9.47,5.79-14.48Z" transform="translate(0 3.66)" fill="#9896f1"/><path d="M41.76,100.65A45.23,45.23,0,0,1,35,99.21c-3.21-1.2-4.83-3.13-3.07-7,2.71-6,4.86-12.19,7.42-18.22.5-1.16,1.83-2,2.78-2.92.84.9,2,1.66,2.47,2.73q4.41,9.6,8.56,19.32C54.77,97,51,97.81,49.06,99S44.15,100.16,41.76,100.65Zm.3-22.26c-2.44,5.94-4.34,10.59-6.55,16H49.12Z" transform="translate(0 3.66)" fill="#9896f1"/><path d="M56.8,66.12h2.9c9-.07,9.48.2,7.07,8.68a72.11,72.11,0,0,1-6.88,15.67c-2.27,4-4.47,3.5-6.29-.71-2.61-6-5.28-12-7.9-18-1.7-3.92-.87-5.28,3.37-5.46,2.58-.11,5.16,0,7.73,0Zm7,5.49H50.2L56.72,86l1.65.1Z" transform="translate(0 3.66)" fill="#9896f1"/><path d="M44,63c2.67-6.8,5-12.89,7.47-18.87,1.15-2.71,2.78-5.22,4.19-7.82,2.11,2.3,5,4.26,6.18,7a119,119,0,0,1,5.49,16.29c.26.92-1,3.27-1.57,3.29C58.87,63.1,52,63,44,63ZM57.65,43.47l-1.51.18L50,58.94H63.58Z" transform="translate(0 3.66)" fill="#9896f1"/><path d="M53,35C50.85,40.5,48.94,45.43,47,50.33c-1,2.53-2.09,5.05-3.29,7.5a11.23,11.23,0,0,1-2,2.26,12.36,12.36,0,0,1-2-2.35c-2.88-6.07-5.62-12.23-8.52-18.3-1.88-3.93-1.09-6.91,3.4-7.27a103.91,103.91,0,0,1,15.57.35C51.17,32.59,52.08,34.12,53,35Zm-4.36,0-14.51.69,7.53,16.72C44.07,46.44,46.05,41.5,48.66,35Z" transform="translate(0 3.66)" fill="#9896f1"/><path d="M27.75,36.35c3.69,8.33,7.3,16.26,10.59,24.32.26.63-1.63,3.06-2.62,3.13A154.24,154.24,0,0,1,18.79,64c-1,0-2.8-2.2-2.69-3.22C17,51.69,20,43.39,27.75,36.35Zm-.88,8L25.56,44c-1.95,5.17-3.91,10.33-5.94,15.72H33.73C31.22,54.08,29,49.22,26.87,44.36Z" transform="translate(0 3.66)" fill="#9896f1"/><path d="M67.24,144.32c-7.74,7.74-8.39,16.18-5.94,21.73a1.34,1.34,0,0,1-.31,1.59L20.27,203.81c-3.44,3.07-3.29,6.71.08,10.08s7,3.53,10.08.08l36.18-40.71a1.35,1.35,0,0,1,1.59-.32c5.55,2.45,14,1.8,21.72-5.93,8.18-8.18,10.15-20.11,3.79-26.48S75.41,136.15,67.24,144.32Z" transform="translate(0 3.66)" fill="#9896f1"/><path d="M35.64,172.49a1.11,1.11,0,0,1,1.51.18l5.73,6.44,6.7-6-6.83-6.08a1.09,1.09,0,0,1-.17-1.5c3.61-5.55,1.68-11.34-3.51-15.7L22.43,136.23a2.11,2.11,0,0,0-3.12,0,2.08,2.08,0,0,0,0,3.13l13.77,13.76a2.19,2.19,0,0,1,0,3.3l-.08.08a2.19,2.19,0,0,1-3.3,0L15.93,142.73a2.06,2.06,0,0,0-3.12,0,2.08,2.08,0,0,0,0,3.13l13.76,13.77a2.16,2.16,0,0,1,0,3.29l-.07.08a2.19,2.19,0,0,1-3.3,0L9.43,149.23a2.06,2.06,0,0,0-3.12,0,2.12,2.12,0,0,0,0,3.13L20,169C24.31,174.18,30.09,176.11,35.64,172.49Z" transform="translate(0 3.66)" fill="#9896f1"/><path d="M84.05,203.82,61.72,184l-7.26,8.17L73.9,214c3.06,3.45,6.7,3.29,10.07-.08S87.49,206.88,84.05,203.82Z" transform="translate(0 3.66)" fill="#9896f1"/><path d="M142,230.6c-14.91,1.48-26.48-11.12-32-25.35-6.52-16.67-5.89-33.41,2-49.55,4.2-8.6,10.39-15.34,19.92-18.75,16-5.72,30.13-.61,43.06,7.75,7.21,4.66,11.77,12.55,14.67,21.09,1.49,4.38,4.67,8.16,6.41,12.48,1,2.54,2.06,6.86.79,8.21-5,5.29-4.75,12.31-7.31,18.33a39,39,0,0,1-14,17.46C166,228.81,155.45,229.88,142,230.6Zm30.94-49c-.18-1.78-.36-5.13-.91-8.42-1.94-11.65-6.4-22.43-16.32-29.1-15.1-10.14-30.53-3.73-39,11.42-9,16.11-9.4,33.09-2.26,50.11a34.79,34.79,0,0,0,21,20c7.25,2.59,21.35-2.93,26.31-9.58C169,206.27,172.68,195.32,172.91,181.62Zm-11.16-39.07a58.49,58.49,0,0,1,15,40.66c-.22,15.49-4.92,29.14-16.61,40.19,15.61-2.79,25.74-13.48,28.21-29.05.4-2.48,2.25-4.7,3.15-7.14.74-2,2.12-5.54,1.42-6.08-5.47-4.22-5.56-10.84-8-16.35C180.17,154.27,172.85,146.5,161.75,142.55Z" transform="translate(0 3.66)" fill="#9896f1"/><path d="M128,184.18c1.76,0,3.51,0,5.27,0,5.39-.1,6.09.89,4.12,5.74-2.38,5.89-4.66,11.81-7.07,17.69-1.72,4.2-3.16,4.58-6,1.16a37.64,37.64,0,0,1-8.42-20.4c-.26-2.56.93-4.16,3.93-4,2.71.18,5.43,0,8.15,0Zm-8.12,5.21,5.73,14.49,1.69-.19,5.72-14.3Z" transform="translate(0 3.66)" fill="#9896f1"/><path d="M141.17,217.59a45.68,45.68,0,0,1-6.7-1.43c-3.17-1.18-4.77-3.09-3-6.9,2.68-5.89,4.8-12,7.34-18,.49-1.14,1.81-1.93,2.74-2.88.83.89,2,1.64,2.44,2.69q4.37,9.5,8.46,19.1c1.61,3.78-2.11,4.61-4,5.73S143.53,217.09,141.17,217.59Zm.29-22c-2.4,5.87-4.29,10.46-6.47,15.77h13.45C146,205.93,144.07,201.49,141.46,195.59Z" transform="translate(0 3.66)" fill="#9896f1"/><path d="M156,183.47h2.86c8.86-.07,9.37.2,7,8.58a71,71,0,0,1-6.79,15.48c-2.25,3.95-4.41,3.45-6.21-.71-2.58-5.94-5.22-11.85-7.8-17.79-1.69-3.88-.87-5.23,3.32-5.4,2.54-.11,5.09,0,7.64,0Zm6.89,5.43H149.5L156,203.11l1.63.1C159.31,198.58,161,194,162.92,188.9Z" transform="translate(0 3.66)" fill="#9896f1"/><path d="M143.36,180.41c2.64-6.72,4.89-12.73,7.38-18.65,1.13-2.67,2.75-5.15,4.14-7.72,2.09,2.27,4.9,4.21,6.11,6.88A119.29,119.29,0,0,1,166.41,177c.26.91-1,3.23-1.55,3.25C158.07,180.49,151.28,180.41,143.36,180.41Zm13.5-19.31-1.49.17-6.09,15.1h13.44Z" transform="translate(0 3.66)" fill="#9896f1"/><path d="M152.3,152.68c-2.15,5.48-4,10.35-6,15.19-1,2.5-2.06,5-3.25,7.41a10.92,10.92,0,0,1-2,2.23,11.28,11.28,0,0,1-1.93-2.31c-2.86-6-5.56-12.09-8.42-18.09-1.86-3.88-1.08-6.82,3.36-7.18a102.55,102.55,0,0,1,15.37.35C150.46,150.35,151.37,151.86,152.3,152.68Zm-4.32,0-14.33.67,7.44,16.52Z" transform="translate(0 3.66)" fill="#9896f1"/><path d="M127.33,154.06c3.64,8.23,7.21,16.06,10.46,24,.25.63-1.61,3-2.59,3.09a150.45,150.45,0,0,1-16.72.2c-1-.05-2.77-2.17-2.66-3.18C116.75,169.21,119.62,161,127.33,154.06Zm-.87,7.91-1.3-.38c-1.93,5.1-3.85,10.21-5.87,15.53h13.94C130.75,171.57,128.6,166.77,126.46,162Z" transform="translate(0 3.66)" fill="#9896f1"/><path d="M260.58,144.32c-7.74,7.74-8.39,16.18-5.94,21.73a1.34,1.34,0,0,1-.31,1.59l-40.72,36.17c-3.45,3.07-3.29,6.71.08,10.08s7,3.53,10.08.08L260,173.26a1.35,1.35,0,0,1,1.59-.32c5.55,2.45,14,1.8,21.72-5.93,8.18-8.18,10.15-20.11,3.79-26.48S268.75,136.15,260.58,144.32Z" transform="translate(0 3.66)" fill="#9896f1"/><path d="M229,172.49a1.11,1.11,0,0,1,1.51.18l5.73,6.44,6.7-6-6.83-6.08a1.09,1.09,0,0,1-.17-1.5c3.61-5.55,1.68-11.34-3.51-15.7l-16.64-13.64a2.11,2.11,0,0,0-3.12,0,2.08,2.08,0,0,0,0,3.13l13.77,13.76a2.19,2.19,0,0,1,0,3.3l-.08.08a2.19,2.19,0,0,1-3.3,0l-13.77-13.77a2.21,2.21,0,0,0-3.12,3.13l13.76,13.77a2.16,2.16,0,0,1,0,3.29l-.07.08a2.19,2.19,0,0,1-3.3,0l-13.77-13.77a2.06,2.06,0,0,0-3.12,0,2.12,2.12,0,0,0,0,3.13L213.29,169C217.65,174.18,223.43,176.11,229,172.49Z" transform="translate(0 3.66)" fill="#9896f1"/><path d="M277.39,203.82,255.06,184l-7.26,8.17L267.24,214c3.06,3.45,6.7,3.29,10.07-.08S280.83,206.88,277.39,203.82Z" transform="translate(0 3.66)" fill="#9896f1"/><path d="M335.56,232.15c-14.91,1.48-26.48-11.12-32.05-25.35-6.52-16.68-5.89-33.42,2-49.55,4.2-8.61,10.39-15.34,19.92-18.76,16-5.72,30.13-.6,43.06,7.76,7.21,4.66,11.77,12.55,14.67,21.09,1.49,4.38,4.67,8.16,6.41,12.48,1,2.54,2.06,6.86.79,8.2-5,5.29-4.75,12.32-7.31,18.33a38.93,38.93,0,0,1-14,17.46C359.57,230.36,349,231.42,335.56,232.15Zm30.94-49c-.18-1.78-.36-5.13-.91-8.43-1.94-11.64-6.4-22.42-16.32-29.09-15.1-10.14-30.53-3.74-39,11.42-9,16.11-9.4,33.08-2.26,50.11a34.79,34.79,0,0,0,21,20c7.25,2.58,21.35-2.94,26.31-9.58C362.62,207.82,366.27,196.86,366.5,183.17ZM355.34,144.1a58.49,58.49,0,0,1,15,40.65c-.22,15.5-4.92,29.14-16.61,40.2,15.61-2.79,25.74-13.48,28.21-29,.4-2.48,2.25-4.7,3.15-7.14.74-2,2.12-5.55,1.42-6.09-5.47-4.22-5.56-10.84-8-16.34C373.76,155.82,366.44,148.05,355.34,144.1Z" transform="translate(0 3.66)" fill="#9896f1"/><path d="M321.55,185.73c1.76,0,3.51,0,5.27,0,5.4-.1,6.09.88,4.12,5.74-2.38,5.89-4.66,11.81-7.07,17.69-1.72,4.2-3.16,4.58-6,1.16a37.55,37.55,0,0,1-8.41-20.4c-.27-2.56.92-4.16,3.92-4,2.71.19,5.43,0,8.15,0Zm-8.12,5.21,5.74,14.49,1.68-.19c1.87-4.68,3.74-9.36,5.72-14.3Z" transform="translate(0 3.66)" fill="#9896f1"/><path d="M334.76,219.13a45.7,45.7,0,0,1-6.7-1.42c-3.17-1.19-4.77-3.1-3-6.9,2.69-5.89,4.8-12,7.34-18,.49-1.14,1.81-1.93,2.74-2.88.83.89,2,1.64,2.44,2.69q4.36,9.48,8.46,19.1c1.61,3.78-2.11,4.61-4,5.73C339.91,218.66,337.12,218.64,334.76,219.13Zm.29-22c-2.4,5.86-4.29,10.46-6.47,15.77H342Z" transform="translate(0 3.66)" fill="#9896f1"/><path d="M349.62,185h2.86c8.86-.07,9.37.2,7,8.58a71,71,0,0,1-6.79,15.47c-2.25,4-4.41,3.46-6.21-.7-2.58-5.94-5.22-11.86-7.8-17.8-1.69-3.87-.87-5.22,3.32-5.4,2.55-.11,5.09,0,7.64,0Zm6.89,5.42H343.09l6.45,14.21,1.63.1C352.9,200.13,354.62,195.5,356.51,190.44Z" transform="translate(0 3.66)" fill="#9896f1"/><path d="M337,182c2.64-6.71,4.89-12.73,7.38-18.64,1.13-2.68,2.75-5.15,4.14-7.72,2.09,2.27,4.9,4.21,6.11,6.88A118.82,118.82,0,0,1,360,178.56c.26.91-1,3.22-1.55,3.24C351.66,182,344.87,182,337,182Zm13.5-19.3-1.49.17-6.09,15.1h13.44Z" transform="translate(0 3.66)" fill="#9896f1"/><path d="M345.89,154.23c-2.15,5.47-4,10.35-6,15.19-1,2.5-2.06,5-3.25,7.4a10.71,10.71,0,0,1-2,2.24,12,12,0,0,1-1.93-2.32c-2.86-6-5.56-12.08-8.42-18.08-1.86-3.88-1.08-6.83,3.36-7.18a102.54,102.54,0,0,1,15.37.34C344.05,151.89,345,153.4,345.89,154.23Zm-4.32.05-14.33.67,7.44,16.52Z" transform="translate(0 3.66)" fill="#9896f1"/><path d="M320.92,155.61c3.64,8.23,7.21,16.06,10.46,24,.25.63-1.61,3-2.59,3.09a150.45,150.45,0,0,1-16.72.19c-1,0-2.77-2.17-2.66-3.17C310.34,170.76,313.21,162.57,320.92,155.61Zm-.87,7.91-1.3-.38c-1.93,5.1-3.85,10.2-5.86,15.52h13.93C324.34,173.12,322.19,168.32,320.05,163.52Z" transform="translate(0 3.66)" fill="#9896f1"/><path d="M455.83,148.73c-7.74,7.73-8.38,16.17-5.94,21.72a1.33,1.33,0,0,1-.31,1.59l-40.72,36.18c-3.44,3.06-3.28,6.7.09,10.07s7,3.53,10.07.09l36.18-40.72a1.34,1.34,0,0,1,1.59-.31c5.55,2.44,14,1.8,21.73-5.94,8.17-8.18,10.15-20.11,3.78-26.47S464,140.55,455.83,148.73Z" transform="translate(0 3.66)" fill="#9896f1"/><path d="M424.23,176.9a1.1,1.1,0,0,1,1.51.17l5.73,6.44,6.71-5.95-6.84-6.08a1.1,1.1,0,0,1-.17-1.51c3.62-5.55,1.68-11.34-3.51-15.69L411,140.64a2.12,2.12,0,0,0-3.13,0,2.06,2.06,0,0,0,0,3.12l13.77,13.77a2.19,2.19,0,0,1,0,3.3l-.08.07a2.19,2.19,0,0,1-3.3,0l-13.76-13.76a2.21,2.21,0,0,0-3.13,3.12L415.17,164a2.19,2.19,0,0,1,0,3.3l-.08.07a2.18,2.18,0,0,1-3.29,0L398,153.63a2.08,2.08,0,0,0-3.13,0,2.13,2.13,0,0,0,0,3.13l13.64,16.64C412.9,178.58,418.69,180.51,424.23,176.9Z" transform="translate(0 3.66)" fill="#9896f1"/><path d="M472.65,208.22l-22.33-19.87-7.27,8.18,19.44,21.85c3.06,3.44,6.7,3.28,10.07-.09S476.09,211.29,472.65,208.22Z" transform="translate(0 3.66)" fill="#9896f1"/><path d="M534.3,231c-14.92,1.48-26.48-11.12-32-25.36-6.53-16.67-5.9-33.41,2-49.54,4.2-8.61,10.38-15.34,19.92-18.76,16-5.72,30.13-.6,43.06,7.76,7.21,4.65,11.77,12.55,14.67,21.09,1.49,4.38,4.66,8.16,6.41,12.48,1,2.53,2.06,6.86.79,8.2-5,5.29-4.75,12.32-7.31,18.33a38.93,38.93,0,0,1-14,17.46C558.31,229.17,547.78,230.23,534.3,231Zm30.94-49c-.19-1.78-.36-5.13-.91-8.43-1.94-11.64-6.4-22.43-16.33-29.09-15.09-10.14-30.52-3.74-39,11.42C500,172,499.59,189,506.74,206a34.75,34.75,0,0,0,21,20c7.25,2.59,21.35-2.93,26.3-9.57C561.35,206.63,565,195.67,565.24,182Zm-11.16-39.07a58.48,58.48,0,0,1,15,40.65c-.22,15.5-4.91,29.14-16.61,40.2,15.62-2.79,25.75-13.48,28.22-29.06.39-2.47,2.25-4.69,3.15-7.13.74-2,2.12-5.55,1.42-6.09-5.48-4.22-5.56-10.84-8-16.34C572.5,154.63,565.17,146.86,554.08,142.91Z" transform="translate(0 3.66)" fill="#9896f1"/><path d="M520.29,184.53c1.75,0,3.51,0,5.27,0,5.39-.1,6.09.88,4.12,5.74-2.38,5.89-4.67,11.81-7.07,17.69-1.73,4.19-3.16,4.58-6,1.16a37.64,37.64,0,0,1-8.42-20.4c-.26-2.56.93-4.16,3.93-4,2.7.18,5.43,0,8.15,0Zm-8.12,5.22,5.73,14.49,1.69-.19,5.71-14.3Z" transform="translate(0 3.66)" fill="#9896f1"/><path d="M533.5,217.94a45.7,45.7,0,0,1-6.7-1.42c-3.17-1.19-4.77-3.1-3-6.9,2.68-5.89,4.8-12,7.34-18,.49-1.14,1.81-1.93,2.74-2.88.83.89,1.95,1.64,2.44,2.69q4.37,9.48,8.46,19.09c1.61,3.79-2.12,4.62-4,5.74C538.65,217.47,535.86,217.45,533.5,217.94Zm.29-22c-2.4,5.86-4.29,10.46-6.47,15.77h13.44Z" transform="translate(0 3.66)" fill="#9896f1"/><path d="M548.36,183.83h2.86c8.85-.07,9.37.2,7,8.58a71,71,0,0,1-6.79,15.47c-2.25,4-4.41,3.46-6.22-.7-2.57-5.94-5.22-11.86-7.8-17.8-1.68-3.88-.87-5.22,3.33-5.4,2.54-.11,5.09,0,7.64,0Zm6.89,5.42H541.83l6.44,14.21,1.64.1C551.63,198.94,553.36,194.31,555.25,189.25Z" transform="translate(0 3.66)" fill="#9896f1"/><path d="M535.69,180.76c2.64-6.71,4.89-12.73,7.38-18.64,1.13-2.68,2.75-5.15,4.14-7.72,2.09,2.27,4.9,4.21,6.1,6.88a116.11,116.11,0,0,1,5.42,16.09c.26.91-1,3.22-1.54,3.24C550.4,180.85,543.6,180.76,535.69,180.76Zm13.5-19.31-1.49.17-6.09,15.11h13.44Z" transform="translate(0 3.66)" fill="#9896f1"/><path d="M544.62,153c-2.15,5.47-4,10.34-6,15.19-1,2.5-2.06,5-3.25,7.4a10.71,10.71,0,0,1-2,2.24,12,12,0,0,1-1.94-2.32c-2.85-6-5.55-12.08-8.42-18.08-1.85-3.88-1.07-6.83,3.37-7.18a102.54,102.54,0,0,1,15.37.34C542.79,150.7,543.69,152.21,544.62,153Zm-4.31.05-14.33.67,7.43,16.52C535.78,164.39,537.74,159.51,540.31,153.09Z" transform="translate(0 3.66)" fill="#9896f1"/><path d="M519.65,154.42c3.65,8.23,7.21,16.06,10.47,24,.25.63-1.61,3-2.59,3.09a150.6,150.6,0,0,1-16.73.19c-1,0-2.76-2.17-2.66-3.17C509.08,169.57,512,161.38,519.65,154.42Zm-.87,7.91-1.29-.38-5.87,15.52h13.94Z" transform="translate(0 3.66)" fill="#9896f1"/><path d="M165.69,269.08c-7.84,7.83-8.49,16.37-6,22a1.35,1.35,0,0,1-.32,1.61L118.14,329.3c-3.48,3.1-3.32,6.78.09,10.2s7.1,3.57,10.2.08l36.62-41.21a1.35,1.35,0,0,1,1.61-.32c5.62,2.47,14.16,1.82,22-6,8.28-8.28,10.28-20.36,3.83-26.8S174,260.8,165.69,269.08Z" transform="translate(0 3.66)" fill="#9896f1"/><path d="M133.7,297.59a1.12,1.12,0,0,1,1.53.18l5.8,6.52,6.79-6-6.92-6.15a1.12,1.12,0,0,1-.18-1.53c3.66-5.62,1.7-11.47-3.55-15.88l-16.84-13.81a2.14,2.14,0,0,0-3.16,0,2.09,2.09,0,0,0,0,3.16L131.11,278a2.22,2.22,0,0,1,0,3.34l-.08.07a2.21,2.21,0,0,1-3.34,0l-13.94-13.93a2.23,2.23,0,0,0-3.16,3.16l13.94,13.94a2.22,2.22,0,0,1,0,3.34l-.08.07a2.21,2.21,0,0,1-3.34,0l-13.94-13.93a2.09,2.09,0,0,0-3.16,0,2.14,2.14,0,0,0,0,3.16l13.81,16.84C122.23,299.3,128.09,301.25,133.7,297.59Z" transform="translate(0 3.66)" fill="#9896f1"/><path d="M182.71,329.3,160.1,309.19l-7.35,8.27,19.68,22.12c3.1,3.49,6.78,3.33,10.19-.09S186.19,332.4,182.71,329.3Z" transform="translate(0 3.66)" fill="#9896f1"/><path d="M241.33,356.42c-15.09,1.49-26.8-11.26-32.44-25.67-6.6-16.88-6-33.82,2-50.15,4.25-8.72,10.51-15.53,20.16-19,16.16-5.79,30.5-.61,43.59,7.85,7.3,4.71,11.91,12.7,14.85,21.35,1.51,4.43,4.72,8.26,6.48,12.63,1,2.57,2.09,6.95.8,8.31-5.06,5.35-4.8,12.46-7.39,18.55A39.58,39.58,0,0,1,275.16,348C265.64,354.6,255,355.68,241.33,356.42Zm31.33-49.59c-.19-1.8-.37-5.19-.93-8.52-2-11.79-6.47-22.71-16.52-29.46-15.28-10.26-30.9-3.78-39.49,11.56-9.13,16.31-9.51,33.49-2.28,50.73a35.18,35.18,0,0,0,21.29,20.21c7.35,2.62,21.62-3,26.63-9.69C268.72,331.79,272.42,320.7,272.66,306.83Zm-11.3-39.55a59.26,59.26,0,0,1,15.17,41.16c-.23,15.68-5,29.5-16.82,40.69,15.81-2.83,26.06-13.65,28.57-29.41.39-2.51,2.27-4.76,3.18-7.23.75-2,2.15-5.61,1.44-6.16-5.54-4.27-5.63-11-8.13-16.54C280,279.15,272.59,271.28,261.36,267.28Z" transform="translate(0 3.66)" fill="#9896f1"/><path d="M227.15,309.42c1.78,0,3.56,0,5.34,0,5.46-.11,6.16.89,4.17,5.81-2.41,5.95-4.72,11.95-7.16,17.9-1.74,4.25-3.2,4.64-6.05,1.17a38,38,0,0,1-8.52-20.64c-.27-2.6.94-4.21,4-4,2.74.19,5.5,0,8.25,0Zm-8.21,5.28,5.8,14.67,1.71-.2,5.78-14.47Z" transform="translate(0 3.66)" fill="#9896f1"/><path d="M240.53,343.24a46.65,46.65,0,0,1-6.79-1.44c-3.21-1.2-4.82-3.14-3.07-7,2.71-6,4.86-12.18,7.43-18.22.49-1.15,1.82-1.95,2.77-2.91.84.9,2,1.66,2.47,2.72q4.41,9.6,8.56,19.33c1.63,3.83-2.14,4.67-4.07,5.8C245.74,342.76,242.91,342.74,240.53,343.24Zm.29-22.26-6.55,16h13.61Z" transform="translate(0 3.66)" fill="#9896f1"/><path d="M255.56,308.71h2.9c9-.06,9.49.21,7.07,8.69a72.28,72.28,0,0,1-6.87,15.67c-2.28,4-4.47,3.49-6.3-.72-2.6-6-5.28-12-7.89-18-1.71-3.93-.88-5.29,3.37-5.47,2.57-.11,5.15,0,7.72,0Zm7,5.49H249l6.52,14.38,1.65.1Z" transform="translate(0 3.66)" fill="#9896f1"/><path d="M242.74,305.6c2.67-6.79,4.95-12.88,7.47-18.87,1.15-2.71,2.78-5.21,4.2-7.81,2.11,2.29,5,4.26,6.17,7a117.68,117.68,0,0,1,5.49,16.29c.26.92-1,3.26-1.57,3.28C257.63,305.69,250.75,305.6,242.74,305.6Zm13.67-19.54-1.51.17-6.16,15.29h13.6Z" transform="translate(0 3.66)" fill="#9896f1"/><path d="M251.79,277.54c-2.18,5.54-4.08,10.47-6.06,15.38-1,2.53-2.08,5-3.29,7.49a11,11,0,0,1-2,2.26,11.89,11.89,0,0,1-1.95-2.34c-2.89-6.08-5.63-12.23-8.53-18.3-1.87-3.93-1.08-6.92,3.41-7.27a103.77,103.77,0,0,1,15.56.34C249.93,275.18,250.84,276.7,251.79,277.54Zm-4.37,0-14.5.68L240.44,295Z" transform="translate(0 3.66)" fill="#9896f1"/><path d="M226.51,278.94c3.69,8.32,7.3,16.25,10.59,24.31.26.64-1.63,3.07-2.62,3.13a154.22,154.22,0,0,1-16.93.2c-1-.05-2.8-2.2-2.69-3.22C215.81,294.27,218.71,286,226.51,278.94Zm-.88,8-1.31-.38c-1.95,5.16-3.9,10.33-5.94,15.71h14.11C230,296.66,227.8,291.8,225.63,286.94Z" transform="translate(0 3.66)" fill="#9896f1"/><path d="M361.39,269.08c-7.83,7.83-8.48,16.37-6,22a1.35,1.35,0,0,1-.32,1.61L313.85,329.3c-3.49,3.1-3.33,6.78.09,10.2s7.1,3.57,10.2.08l36.62-41.21a1.35,1.35,0,0,1,1.61-.32c5.61,2.47,14.15,1.82,22-6,8.27-8.28,10.27-20.36,3.83-26.8S369.67,260.8,361.39,269.08Z" transform="translate(0 3.66)" fill="#9896f1"/><path d="M329.41,297.59a1.11,1.11,0,0,1,1.52.18l5.81,6.52,6.78-6-6.91-6.15a1.12,1.12,0,0,1-.18-1.53c3.66-5.62,1.7-11.47-3.55-15.88L316,260.89a2.14,2.14,0,0,0-3.16,0,2.09,2.09,0,0,0,0,3.16L326.81,278a2.21,2.21,0,0,1,0,3.34l-.07.07a2.21,2.21,0,0,1-3.34,0l-13.94-13.93a2.23,2.23,0,0,0-3.16,3.16l13.93,13.94a2.21,2.21,0,0,1,0,3.34l-.07.07a2.21,2.21,0,0,1-3.34,0l-13.94-13.93a2.09,2.09,0,0,0-3.16,0,2.14,2.14,0,0,0,0,3.16l13.81,16.84C317.94,299.3,323.79,301.25,329.41,297.59Z" transform="translate(0 3.66)" fill="#9896f1"/><path d="M378.42,329.3l-22.61-20.11-7.35,8.27,19.68,22.12c3.09,3.49,6.78,3.33,10.19-.09S381.9,332.4,378.42,329.3Z" transform="translate(0 3.66)" fill="#9896f1"/><path d="M437.3,358c-15.1,1.5-26.8-11.26-32.44-25.66-6.61-16.88-6-33.83,2-50.16,4.25-8.71,10.51-15.53,20.16-19,16.16-5.8,30.5-.62,43.59,7.84,7.3,4.72,11.91,12.71,14.85,21.36,1.51,4.43,4.72,8.26,6.49,12.63,1,2.57,2.08,6.94.8,8.3-5.07,5.36-4.81,12.47-7.4,18.56a39.54,39.54,0,0,1-14.21,17.67C461.6,356.17,450.94,357.25,437.3,358Zm31.32-49.58c-.19-1.8-.37-5.2-.92-8.53-2-11.79-6.48-22.7-16.53-29.45-15.28-10.27-30.9-3.78-39.49,11.56-9.13,16.31-9.51,33.49-2.28,50.73a35.21,35.21,0,0,0,21.3,20.2c7.34,2.63,21.61-3,26.62-9.69C464.68,333.35,468.38,322.26,468.62,308.4Zm-11.3-39.55A59.25,59.25,0,0,1,472.49,310c-.22,15.69-5,29.5-16.81,40.69,15.8-2.82,26.05-13.65,28.56-29.41.4-2.51,2.27-4.75,3.18-7.22.75-2.05,2.15-5.62,1.44-6.16-5.54-4.27-5.63-11-8.13-16.55C476,280.72,468.55,272.85,457.32,268.85Z" transform="translate(0 3.66)" fill="#9896f1"/><path d="M423.11,311c1.78,0,3.56,0,5.34,0,5.46-.1,6.16.89,4.17,5.81-2.41,6-4.72,12-7.16,17.91-1.74,4.25-3.19,4.63-6,1.17a38.09,38.09,0,0,1-8.52-20.65c-.27-2.59.94-4.21,4-4,2.73.18,5.49,0,8.24,0Zm-8.21,5.27,5.8,14.67,1.71-.19,5.78-14.48Z" transform="translate(0 3.66)" fill="#9896f1"/><path d="M436.49,344.8a44,44,0,0,1-6.78-1.44c-3.22-1.2-4.83-3.13-3.08-7,2.72-6,4.86-12.19,7.43-18.22.49-1.16,1.83-2,2.77-2.92.84.9,2,1.66,2.47,2.73q4.43,9.6,8.56,19.33c1.63,3.83-2.13,4.66-4.07,5.8C441.7,344.33,438.88,344.31,436.49,344.8Zm.29-22.26c-2.43,5.94-4.34,10.59-6.55,16h13.61Z" transform="translate(0 3.66)" fill="#9896f1"/><path d="M451.53,310.27h2.9c9-.07,9.48.2,7.06,8.68a72.07,72.07,0,0,1-6.87,15.67c-2.28,4-4.47,3.5-6.29-.71-2.61-6-5.29-12-7.9-18-1.7-3.92-.88-5.28,3.37-5.46,2.57-.11,5.15,0,7.73,0Zm7,5.49H444.92l6.52,14.39,1.66.1C454.84,325.56,456.59,320.88,458.5,315.76Z" transform="translate(0 3.66)" fill="#9896f1"/><path d="M438.7,307.17c2.67-6.8,4.95-12.89,7.48-18.87,1.14-2.71,2.78-5.22,4.19-7.82,2.11,2.3,5,4.27,6.18,7A119,119,0,0,1,462,303.73c.27.92-1,3.27-1.56,3.29C453.6,307.25,446.72,307.17,438.7,307.17Zm13.67-19.55-1.51.18-6.16,15.29h13.6Z" transform="translate(0 3.66)" fill="#9896f1"/><path d="M447.75,279.11c-2.18,5.54-4.08,10.47-6.06,15.37-1,2.53-2.08,5-3.29,7.5a11.49,11.49,0,0,1-2,2.26,11.89,11.89,0,0,1-2-2.34c-2.89-6.08-5.62-12.24-8.53-18.31-1.87-3.93-1.08-6.91,3.41-7.27a105.1,105.1,0,0,1,15.56.35C445.89,276.74,446.81,278.27,447.75,279.11Zm-4.37,0-14.5.69,7.52,16.72C438.8,290.59,440.78,285.65,443.38,279.15Z" transform="translate(0 3.66)" fill="#9896f1"/><path d="M422.47,280.5c3.69,8.33,7.3,16.26,10.59,24.32.26.63-1.62,3.06-2.61,3.13a154.4,154.4,0,0,1-16.94.19c-1,0-2.79-2.2-2.69-3.22C411.77,295.84,414.67,287.54,422.47,280.5Zm-.88,8-1.31-.39-5.94,15.72h14.11C425.94,298.23,423.77,293.37,421.59,288.51Z" transform="translate(0 3.66)" fill="#9896f1"/><path d="M559,273.53c-7.83,7.84-8.49,16.38-6,22a1.34,1.34,0,0,1-.32,1.6L511.5,333.75c-3.49,3.1-3.33,6.79.08,10.2s7.1,3.58,10.2.09l36.62-41.22a1.37,1.37,0,0,1,1.61-.31c5.62,2.47,14.16,1.82,22-6,8.28-8.28,10.28-20.36,3.84-26.8S567.32,265.26,559,273.53Z" transform="translate(0 3.66)" fill="#9896f1"/><path d="M527.06,302.05a1.11,1.11,0,0,1,1.52.18l5.8,6.52,6.79-6-6.92-6.16a1.12,1.12,0,0,1-.17-1.52c3.66-5.62,1.7-11.48-3.55-15.89l-16.84-13.8a2.15,2.15,0,0,0-3.17,0,2.09,2.09,0,0,0,0,3.16l13.94,13.93a2.22,2.22,0,0,1,0,3.34l-.08.08a2.22,2.22,0,0,1-3.34,0l-13.93-13.94a2.24,2.24,0,1,0-3.16,3.17L517.88,289a2.19,2.19,0,0,1,0,3.33l-.08.08a2.22,2.22,0,0,1-3.34,0L500.53,278.5a2.09,2.09,0,0,0-3.16,0,2.14,2.14,0,0,0,0,3.17l13.8,16.84C515.58,303.76,521.44,305.71,527.06,302.05Z" transform="translate(0 3.66)" fill="#9896f1"/><path d="M576.06,333.76l-22.6-20.11-7.36,8.27L565.78,344c3.1,3.49,6.78,3.32,10.2-.09S579.55,336.86,576.06,333.76Z" transform="translate(0 3.66)" fill="#9896f1"/><path d="M42.57,349.73c-15.1,1.5-26.8-11.26-32.44-25.66-6.6-16.88-6-33.82,2-50.16,4.25-8.71,10.51-15.53,20.15-19,16.16-5.79,30.51-.61,43.6,7.84,7.3,4.72,11.91,12.71,14.85,21.36,1.5,4.43,4.72,8.26,6.48,12.63,1,2.57,2.09,6.94.8,8.3-5.06,5.36-4.8,12.47-7.39,18.56A39.56,39.56,0,0,1,76.4,341.29C66.88,347.92,56.22,349,42.57,349.73Zm31.32-49.58c-.19-1.8-.36-5.2-.92-8.53-2-11.79-6.48-22.7-16.52-29.45C41.17,251.9,25.55,258.39,17,273.73,7.83,290,7.44,307.22,14.68,324.46A35.2,35.2,0,0,0,36,344.66c7.34,2.63,21.62-3,26.63-9.69C70,325.1,73.66,314,73.89,300.15ZM62.6,260.6a59.2,59.2,0,0,1,15.16,41.15c-.22,15.69-5,29.5-16.81,40.69C76.76,339.62,87,328.79,89.51,313c.4-2.51,2.28-4.75,3.19-7.22.75-2.05,2.15-5.62,1.44-6.16-5.54-4.27-5.63-11-8.13-16.55C81.24,272.47,73.83,264.6,62.6,260.6Z" transform="translate(0 3.66)" fill="#9896f1"/><path d="M28.39,302.74c1.78,0,3.56,0,5.33,0,5.47-.1,6.17.89,4.18,5.81-2.41,6-4.73,12-7.16,17.91-1.75,4.25-3.2,4.63-6,1.17A38,38,0,0,1,16.17,307c-.27-2.59.93-4.21,4-4,2.74.18,5.5,0,8.25,0ZM20.17,308,26,322.69l1.7-.2c1.9-4.74,3.79-9.47,5.79-14.48Z" transform="translate(0 3.66)" fill="#9896f1"/><path d="M41.76,336.56A45.2,45.2,0,0,1,35,335.11c-3.21-1.2-4.83-3.13-3.07-7,2.71-6,4.86-12.19,7.42-18.22.5-1.16,1.83-2,2.78-2.92.84.9,2,1.67,2.47,2.73q4.41,9.6,8.56,19.33c1.63,3.83-2.14,4.66-4.08,5.8S44.15,336.06,41.76,336.56Zm.3-22.27-6.55,16H49.12Z" transform="translate(0 3.66)" fill="#9896f1"/><path d="M56.8,302h2.9c9-.07,9.48.2,7.07,8.69a72.24,72.24,0,0,1-6.88,15.66c-2.27,4-4.47,3.5-6.29-.71-2.61-6-5.28-12-7.9-18-1.7-3.92-.87-5.28,3.37-5.46,2.58-.11,5.16,0,7.73,0Zm7,5.49H50.2l6.52,14.39,1.65.1Z" transform="translate(0 3.66)" fill="#9896f1"/><path d="M44,298.92c2.67-6.8,5-12.89,7.47-18.87,1.15-2.71,2.78-5.22,4.19-7.82,2.11,2.3,5,4.27,6.18,7a119,119,0,0,1,5.49,16.29c.26.92-1,3.27-1.57,3.29C58.87,299,52,298.92,44,298.92Zm13.67-19.55-1.51.18L50,294.84H63.58Z" transform="translate(0 3.66)" fill="#9896f1"/><path d="M53,270.86c-2.17,5.54-4.08,10.47-6.05,15.37-1,2.53-2.09,5-3.29,7.5a11.23,11.23,0,0,1-2,2.26,12.62,12.62,0,0,1-2-2.34c-2.88-6.08-5.62-12.24-8.52-18.31-1.88-3.93-1.09-6.91,3.4-7.27a105.26,105.26,0,0,1,15.57.35C51.17,268.49,52.08,270,53,270.86Zm-4.36,0-14.51.69,7.53,16.72C44.07,282.34,46.05,277.4,48.66,270.9Z" transform="translate(0 3.66)" fill="#9896f1"/><path d="M27.75,272.25c3.69,8.33,7.3,16.26,10.59,24.32.26.63-1.63,3.06-2.62,3.13a154.24,154.24,0,0,1-16.93.19c-1,0-2.8-2.2-2.69-3.21C17,287.59,20,279.29,27.75,272.25Zm-.88,8-1.31-.39c-1.95,5.17-3.91,10.33-5.94,15.72H33.73C31.22,290,29,285.12,26.87,280.26Z" transform="translate(0 3.66)" fill="#9896f1"/><path d="M67.24,380.22C59.5,388,58.85,396.4,61.3,402a1.34,1.34,0,0,1-.31,1.59L20.27,439.71c-3.44,3.07-3.29,6.71.08,10.08s7,3.53,10.08.08l36.18-40.71a1.35,1.35,0,0,1,1.59-.32c5.55,2.45,14,1.8,21.72-5.93,8.18-8.18,10.15-20.11,3.79-26.48S75.41,372.05,67.24,380.22Z" transform="translate(0 3.66)" fill="#9896f1"/><path d="M35.64,408.39a1.11,1.11,0,0,1,1.51.18L42.88,415l6.7-6L42.75,403a1.09,1.09,0,0,1-.17-1.5c3.61-5.55,1.68-11.34-3.51-15.7L22.43,372.13a2.11,2.11,0,0,0-3.12,0,2.08,2.08,0,0,0,0,3.13L33.08,389a2.19,2.19,0,0,1,0,3.3l-.08.08a2.19,2.19,0,0,1-3.3,0L15.93,378.63a2.06,2.06,0,0,0-3.12,0,2.08,2.08,0,0,0,0,3.13l13.76,13.77a2.16,2.16,0,0,1,0,3.29l-.07.08a2.19,2.19,0,0,1-3.3,0L9.43,385.13a2.06,2.06,0,0,0-3.12,0,2.12,2.12,0,0,0,0,3.13L20,404.89C24.31,410.08,30.09,412,35.64,408.39Z" transform="translate(0 3.66)" fill="#9896f1"/><path d="M84.05,439.72,61.72,419.85,54.46,428,73.9,449.87c3.06,3.45,6.7,3.29,10.07-.08S87.49,442.78,84.05,439.72Z" transform="translate(0 3.66)" fill="#9896f1"/><path d="M142,466.51c-14.91,1.47-26.48-11.13-32-25.36-6.52-16.67-5.89-33.41,2-49.54,4.2-8.61,10.39-15.35,19.92-18.76,16-5.72,30.13-.61,43.06,7.75,7.21,4.66,11.77,12.55,14.67,21.1,1.49,4.37,4.67,8.15,6.41,12.47,1,2.54,2.06,6.86.79,8.21-5,5.29-4.75,12.31-7.31,18.33a39,39,0,0,1-14,17.46C166,464.71,155.45,465.78,142,466.51Zm30.94-49c-.18-1.78-.36-5.13-.91-8.42-1.94-11.65-6.4-22.43-16.32-29.1-15.1-10.14-30.53-3.73-39,11.42-9,16.11-9.4,33.09-2.26,50.12a34.8,34.8,0,0,0,21,20c7.25,2.59,21.35-2.93,26.31-9.58C169,442.17,172.68,431.22,172.91,417.52Zm-11.16-39.07a58.51,58.51,0,0,1,15,40.66c-.22,15.49-4.92,29.14-16.61,40.19,15.61-2.79,25.74-13.48,28.21-29.05.4-2.48,2.25-4.69,3.15-7.13.74-2,2.12-5.55,1.42-6.09-5.47-4.22-5.56-10.84-8-16.35C180.17,390.17,172.85,382.4,161.75,378.45Z" transform="translate(0 3.66)" fill="#9896f1"/><path d="M128,420.08c1.76,0,3.51,0,5.27,0,5.39-.1,6.09.89,4.12,5.74-2.38,5.89-4.66,11.82-7.07,17.69-1.72,4.2-3.16,4.58-6,1.16a37.6,37.6,0,0,1-8.42-20.39c-.26-2.57.93-4.16,3.93-4,2.71.18,5.43,0,8.15,0Zm-8.12,5.21,5.73,14.5,1.69-.2,5.72-14.3Z" transform="translate(0 3.66)" fill="#9896f1"/><path d="M141.17,453.49a45.68,45.68,0,0,1-6.7-1.43c-3.17-1.18-4.77-3.09-3-6.89,2.68-5.9,4.8-12,7.34-18,.49-1.14,1.81-1.93,2.74-2.88.83.89,2,1.65,2.44,2.69q4.37,9.5,8.46,19.1c1.61,3.79-2.11,4.61-4,5.73S143.53,453,141.17,453.49Zm.29-22c-2.4,5.86-4.29,10.45-6.47,15.76h13.45C146,441.83,144.07,437.4,141.46,431.5Z" transform="translate(0 3.66)" fill="#9896f1"/><path d="M156,419.37h2.86c8.86-.06,9.37.2,7,8.58a71,71,0,0,1-6.79,15.48c-2.25,3.95-4.41,3.45-6.21-.71-2.58-5.94-5.22-11.85-7.8-17.79-1.69-3.88-.87-5.23,3.32-5.4,2.54-.11,5.09,0,7.64,0Zm6.89,5.43H149.5L156,439l1.63.1C159.31,434.48,161,429.85,162.92,424.8Z" transform="translate(0 3.66)" fill="#9896f1"/><path d="M143.36,416.31c2.64-6.72,4.89-12.73,7.38-18.65,1.13-2.67,2.75-5.15,4.14-7.72,2.09,2.27,4.9,4.22,6.11,6.88a119.29,119.29,0,0,1,5.42,16.09c.26.91-1,3.23-1.55,3.25C158.07,416.39,151.28,416.31,143.36,416.31ZM156.86,397l-1.49.17-6.09,15.1h13.44Z" transform="translate(0 3.66)" fill="#9896f1"/><path d="M152.3,388.59c-2.15,5.47-4,10.34-6,15.18-1,2.5-2.06,5-3.25,7.41a10.66,10.66,0,0,1-2,2.23,11.28,11.28,0,0,1-1.93-2.31c-2.86-6-5.56-12.09-8.42-18.09-1.86-3.88-1.08-6.82,3.36-7.18a103.9,103.9,0,0,1,15.37.35C150.46,386.25,151.37,387.76,152.3,388.59Zm-4.32,0-14.33.68,7.44,16.52Z" transform="translate(0 3.66)" fill="#9896f1"/><path d="M127.33,390c3.64,8.23,7.21,16.06,10.46,24,.25.62-1.61,3-2.59,3.09a152.91,152.91,0,0,1-16.72.19c-1,0-2.77-2.17-2.66-3.18C116.75,405.12,119.62,396.92,127.33,390Zm-.87,7.91-1.3-.38c-1.93,5.11-3.85,10.21-5.87,15.53h13.94C130.75,407.47,128.6,402.67,126.46,397.87Z" transform="translate(0 3.66)" fill="#9896f1"/><path d="M260.58,380.22c-7.74,7.74-8.39,16.18-5.94,21.73a1.34,1.34,0,0,1-.31,1.59l-40.72,36.17c-3.45,3.07-3.29,6.71.08,10.08s7,3.53,10.08.08L260,409.16a1.35,1.35,0,0,1,1.59-.32c5.55,2.45,14,1.8,21.72-5.93,8.18-8.18,10.15-20.11,3.79-26.48S268.75,372.05,260.58,380.22Z" transform="translate(0 3.66)" fill="#9896f1"/><path d="M229,408.39a1.11,1.11,0,0,1,1.51.18l5.73,6.44,6.7-6L236.09,403a1.09,1.09,0,0,1-.17-1.5c3.61-5.55,1.68-11.34-3.51-15.7l-16.64-13.64a2.11,2.11,0,0,0-3.12,0,2.08,2.08,0,0,0,0,3.13L226.42,389a2.19,2.19,0,0,1,0,3.3l-.08.08a2.19,2.19,0,0,1-3.3,0l-13.77-13.77a2.21,2.21,0,0,0-3.12,3.13l13.76,13.77a2.16,2.16,0,0,1,0,3.29l-.07.08a2.19,2.19,0,0,1-3.3,0l-13.77-13.77a2.06,2.06,0,0,0-3.12,0,2.12,2.12,0,0,0,0,3.13l13.64,16.63C217.65,410.08,223.43,412,229,408.39Z" transform="translate(0 3.66)" fill="#9896f1"/><path d="M277.39,439.72l-22.33-19.87L247.8,428l19.44,21.84c3.06,3.45,6.7,3.29,10.07-.08S280.83,442.78,277.39,439.72Z" transform="translate(0 3.66)" fill="#9896f1"/><path d="M335.56,468.05c-14.91,1.48-26.48-11.12-32.05-25.35-6.52-16.67-5.89-33.42,2-49.55,4.2-8.61,10.39-15.34,19.92-18.76,16-5.72,30.13-.6,43.06,7.76,7.21,4.66,11.77,12.55,14.67,21.09,1.49,4.38,4.67,8.16,6.41,12.48,1,2.54,2.06,6.86.79,8.2-5,5.29-4.75,12.32-7.31,18.34a39,39,0,0,1-14,17.45C359.57,466.26,349,467.33,335.56,468.05Zm30.94-49c-.18-1.78-.36-5.13-.91-8.43-1.94-11.64-6.4-22.42-16.32-29.09-15.1-10.14-30.53-3.74-39,11.42-9,16.11-9.4,33.09-2.26,50.11a34.79,34.79,0,0,0,21,20c7.25,2.59,21.35-2.94,26.31-9.58C362.62,443.72,366.27,432.76,366.5,419.07ZM355.34,380a58.49,58.49,0,0,1,15,40.65c-.22,15.5-4.92,29.15-16.61,40.2,15.61-2.79,25.74-13.48,28.21-29.05.4-2.48,2.25-4.7,3.15-7.14.74-2,2.12-5.55,1.42-6.09-5.47-4.22-5.56-10.83-8-16.34C373.76,391.72,366.44,384,355.34,380Z" transform="translate(0 3.66)" fill="#9896f1"/><path d="M321.55,421.63c1.76,0,3.51,0,5.27,0,5.4-.1,6.09.88,4.12,5.74-2.38,5.89-4.66,11.81-7.07,17.69-1.72,4.2-3.16,4.58-6,1.16a37.55,37.55,0,0,1-8.41-20.4c-.27-2.56.92-4.16,3.92-4,2.71.19,5.43,0,8.15,0Zm-8.12,5.21,5.74,14.49,1.68-.19c1.87-4.68,3.74-9.36,5.72-14.3Z" transform="translate(0 3.66)" fill="#9896f1"/><path d="M334.76,455a45.7,45.7,0,0,1-6.7-1.42c-3.17-1.19-4.77-3.1-3-6.9,2.69-5.89,4.8-12,7.34-18,.49-1.14,1.81-1.93,2.74-2.88.83.89,2,1.64,2.44,2.69q4.36,9.5,8.46,19.1c1.61,3.78-2.11,4.61-4,5.73C339.91,454.56,337.12,454.54,334.76,455Zm.29-22c-2.4,5.86-4.29,10.46-6.47,15.77H342Z" transform="translate(0 3.66)" fill="#9896f1"/><path d="M349.62,420.92h2.86c8.86-.07,9.37.2,7,8.58A70.75,70.75,0,0,1,352.67,445c-2.25,3.95-4.41,3.46-6.21-.7-2.58-5.94-5.22-11.86-7.8-17.8-1.69-3.87-.87-5.22,3.32-5.4,2.55-.1,5.09,0,7.64,0Zm6.89,5.42H343.09l6.45,14.21,1.63.1C352.9,436,354.62,431.4,356.51,426.34Z" transform="translate(0 3.66)" fill="#9896f1"/><path d="M337,417.85c2.64-6.71,4.89-12.73,7.38-18.64,1.13-2.68,2.75-5.15,4.14-7.72,2.09,2.27,4.9,4.21,6.11,6.88A118.82,118.82,0,0,1,360,414.46c.26.91-1,3.22-1.55,3.24C351.66,417.94,344.87,417.85,337,417.85Zm13.5-19.3-1.49.17-6.09,15.1h13.44Z" transform="translate(0 3.66)" fill="#9896f1"/><path d="M345.89,390.13c-2.15,5.47-4,10.35-6,15.19-1,2.5-2.06,5-3.25,7.4a10.71,10.71,0,0,1-2,2.24,12,12,0,0,1-1.93-2.32c-2.86-6-5.56-12.08-8.42-18.08-1.86-3.88-1.08-6.83,3.36-7.18a102.54,102.54,0,0,1,15.37.34C344.05,387.8,345,389.3,345.89,390.13Zm-4.32.05-14.33.67,7.44,16.52Z" transform="translate(0 3.66)" fill="#9896f1"/><path d="M320.92,391.51c3.64,8.23,7.21,16.06,10.46,24,.25.63-1.61,3-2.59,3.09a152.91,152.91,0,0,1-16.72.2c-1-.05-2.77-2.18-2.66-3.18C310.34,406.66,313.21,398.47,320.92,391.51Zm-.87,7.91-1.3-.38c-1.93,5.1-3.85,10.2-5.86,15.53h13.93C324.34,409,322.19,404.22,320.05,399.42Z" transform="translate(0 3.66)" fill="#9896f1"/><path d="M455.83,384.63c-7.74,7.73-8.38,16.17-5.94,21.72a1.33,1.33,0,0,1-.31,1.59l-40.72,36.18c-3.44,3.06-3.28,6.7.09,10.07s7,3.53,10.07.09l36.18-40.72a1.34,1.34,0,0,1,1.59-.31c5.55,2.44,14,1.8,21.73-5.94,8.17-8.17,10.15-20.11,3.78-26.47S464,376.45,455.83,384.63Z" transform="translate(0 3.66)" fill="#9896f1"/><path d="M424.23,412.8a1.1,1.1,0,0,1,1.51.17l5.73,6.44,6.71-6-6.84-6.08a1.1,1.1,0,0,1-.17-1.51c3.62-5.55,1.68-11.34-3.51-15.69L411,376.54a2.12,2.12,0,0,0-3.13,0,2.06,2.06,0,0,0,0,3.12l13.77,13.77a2.19,2.19,0,0,1,0,3.3l-.08.07a2.19,2.19,0,0,1-3.3,0L404.53,383a2.21,2.21,0,0,0-3.13,3.12l13.77,13.77a2.19,2.19,0,0,1,0,3.3l-.08.07a2.16,2.16,0,0,1-3.29,0L398,389.54a2.08,2.08,0,0,0-3.13,0,2.11,2.11,0,0,0,0,3.12l13.64,16.64C412.9,414.49,418.69,416.41,424.23,412.8Z" transform="translate(0 3.66)" fill="#9896f1"/><path d="M472.65,444.13l-22.33-19.87-7.27,8.17,19.44,21.85c3.06,3.44,6.7,3.28,10.07-.09S476.09,447.19,472.65,444.13Z" transform="translate(0 3.66)" fill="#9896f1"/><path d="M534.3,466.86c-14.92,1.48-26.48-11.12-32-25.35-6.53-16.68-5.9-33.42,2-49.55,4.2-8.61,10.38-15.34,19.92-18.76,16-5.72,30.13-.6,43.06,7.76,7.21,4.66,11.77,12.55,14.67,21.09,1.49,4.38,4.66,8.16,6.41,12.48,1,2.54,2.06,6.86.79,8.2-5,5.29-4.75,12.32-7.31,18.33a38.93,38.93,0,0,1-14,17.46C558.31,465.07,547.78,466.13,534.3,466.86Zm30.94-49c-.19-1.78-.36-5.13-.91-8.43-1.94-11.64-6.4-22.42-16.33-29.09-15.09-10.14-30.52-3.74-39,11.42-9,16.11-9.4,33.08-2.25,50.11a34.79,34.79,0,0,0,21,20c7.25,2.58,21.35-2.94,26.3-9.58C561.35,442.53,565,431.57,565.24,417.88Zm-11.16-39.07a58.48,58.48,0,0,1,15,40.65c-.22,15.5-4.91,29.14-16.61,40.2,15.62-2.79,25.75-13.48,28.22-29.05.39-2.48,2.25-4.7,3.15-7.14.74-2,2.12-5.55,1.42-6.09-5.48-4.22-5.56-10.84-8-16.34C572.5,390.53,565.17,382.76,554.08,378.81Z" transform="translate(0 3.66)" fill="#9896f1"/><path d="M520.29,420.44c1.75,0,3.51,0,5.27,0,5.39-.1,6.09.88,4.12,5.74-2.38,5.89-4.67,11.81-7.07,17.69-1.73,4.2-3.16,4.58-6,1.16a37.64,37.64,0,0,1-8.42-20.4c-.26-2.56.93-4.16,3.93-4,2.7.19,5.43,0,8.15,0Zm-8.12,5.21,5.73,14.49,1.69-.19,5.71-14.3Z" transform="translate(0 3.66)" fill="#9896f1"/><path d="M533.5,453.84a45.7,45.7,0,0,1-6.7-1.42c-3.17-1.19-4.77-3.1-3-6.9,2.68-5.89,4.8-12,7.34-18,.49-1.14,1.81-1.93,2.74-2.88.83.89,1.95,1.64,2.44,2.69q4.37,9.48,8.46,19.1c1.61,3.78-2.12,4.61-4,5.73C538.65,453.37,535.86,453.35,533.5,453.84Zm.29-22c-2.4,5.86-4.29,10.46-6.47,15.77h13.44Z" transform="translate(0 3.66)" fill="#9896f1"/><path d="M548.36,419.73h2.86c8.85-.07,9.37.2,7,8.58a71,71,0,0,1-6.79,15.47c-2.25,4-4.41,3.46-6.22-.7-2.57-5.94-5.22-11.86-7.8-17.8-1.68-3.87-.87-5.22,3.33-5.4,2.54-.1,5.09,0,7.64,0Zm6.89,5.42H541.83l6.44,14.21,1.64.1C551.63,434.84,553.36,430.21,555.25,425.15Z" transform="translate(0 3.66)" fill="#9896f1"/><path d="M535.69,416.66c2.64-6.71,4.89-12.73,7.38-18.64,1.13-2.68,2.75-5.15,4.14-7.72,2.09,2.27,4.9,4.21,6.1,6.88a116.11,116.11,0,0,1,5.42,16.09c.26.91-1,3.22-1.54,3.24C550.4,416.75,543.6,416.66,535.69,416.66Zm13.5-19.3-1.49.17-6.09,15.1h13.44Z" transform="translate(0 3.66)" fill="#9896f1"/><path d="M544.62,388.94c-2.15,5.47-4,10.35-6,15.19-1,2.5-2.06,5-3.25,7.4a10.71,10.71,0,0,1-2,2.24,12,12,0,0,1-1.94-2.32c-2.85-6-5.55-12.08-8.42-18.08-1.85-3.88-1.07-6.83,3.37-7.18a102.54,102.54,0,0,1,15.37.34C542.79,386.61,543.69,388.11,544.62,388.94Zm-4.31.05-14.33.67,7.43,16.52C535.78,400.29,537.74,395.41,540.31,389Z" transform="translate(0 3.66)" fill="#9896f1"/><path d="M519.65,390.32c3.65,8.23,7.21,16.06,10.47,24,.25.63-1.61,3-2.59,3.09a150.6,150.6,0,0,1-16.73.19c-1,0-2.76-2.17-2.66-3.17C509.08,405.47,512,397.28,519.65,390.32Zm-.87,7.91-1.29-.38-5.87,15.52h13.94Z" transform="translate(0 3.66)" fill="#9896f1"/><path d="M165.69,505c-7.84,7.83-8.49,16.37-6,22a1.35,1.35,0,0,1-.32,1.61L118.14,565.2c-3.48,3.1-3.32,6.79.09,10.2s7.1,3.57,10.2.08l36.62-41.21a1.35,1.35,0,0,1,1.61-.32c5.62,2.48,14.16,1.82,22-6,8.28-8.28,10.28-20.36,3.83-26.8S174,496.7,165.69,505Z" transform="translate(0 3.66)" fill="#9896f1"/><path d="M133.7,533.49a1.12,1.12,0,0,1,1.53.18l5.8,6.52,6.79-6L140.9,528a1.12,1.12,0,0,1-.18-1.53c3.66-5.61,1.7-11.47-3.55-15.88l-16.84-13.81a2.14,2.14,0,0,0-3.16,0,2.09,2.09,0,0,0,0,3.16l13.94,13.94a2.22,2.22,0,0,1,0,3.34l-.08.07a2.21,2.21,0,0,1-3.34,0l-13.94-13.93a2.23,2.23,0,0,0-3.16,3.16l13.94,13.94a2.22,2.22,0,0,1,0,3.34l-.08.07a2.21,2.21,0,0,1-3.34,0L107.17,510a2.09,2.09,0,0,0-3.16,0,2.14,2.14,0,0,0,0,3.16L117.82,530C122.23,535.2,128.09,537.15,133.7,533.49Z" transform="translate(0 3.66)" fill="#9896f1"/><path d="M182.71,565.2,160.1,545.09l-7.35,8.28,19.68,22.11c3.1,3.49,6.78,3.33,10.19-.08S186.19,568.3,182.71,565.2Z" transform="translate(0 3.66)" fill="#9896f1"/><path d="M241.33,592.32c-15.09,1.49-26.8-11.26-32.44-25.67-6.6-16.87-6-33.82,2-50.15,4.25-8.71,10.51-15.53,20.16-19,16.16-5.79,30.5-.61,43.59,7.85,7.3,4.72,11.91,12.71,14.85,21.35,1.51,4.43,4.72,8.26,6.48,12.64,1,2.56,2.09,6.94.8,8.3-5.06,5.35-4.8,12.46-7.39,18.55a39.52,39.52,0,0,1-14.22,17.68C265.64,590.5,255,591.58,241.33,592.32Zm31.33-49.58c-.19-1.81-.37-5.2-.93-8.53-2-11.79-6.47-22.71-16.52-29.46-15.28-10.26-30.9-3.78-39.49,11.56-9.13,16.31-9.51,33.5-2.28,50.73a35.18,35.18,0,0,0,21.29,20.21c7.35,2.62,21.62-3,26.63-9.69C268.72,567.69,272.42,556.6,272.66,542.74Zm-11.3-39.56a59.26,59.26,0,0,1,15.17,41.16c-.23,15.69-5,29.5-16.82,40.69,15.81-2.83,26.06-13.65,28.57-29.41.39-2.51,2.27-4.75,3.18-7.22.75-2,2.15-5.62,1.44-6.17-5.54-4.27-5.63-11-8.13-16.54C280,515.05,272.59,507.18,261.36,503.18Z" transform="translate(0 3.66)" fill="#9896f1"/><path d="M227.15,545.32c1.78,0,3.56,0,5.34,0,5.46-.11,6.16.89,4.17,5.81-2.41,6-4.72,12-7.16,17.9-1.74,4.25-3.2,4.64-6.05,1.18a38,38,0,0,1-8.52-20.65c-.27-2.59.94-4.21,4-4,2.74.19,5.5,0,8.25,0Zm-8.21,5.28,5.8,14.67,1.71-.2,5.78-14.47Z" transform="translate(0 3.66)" fill="#9896f1"/><path d="M240.53,579.14a46.65,46.65,0,0,1-6.79-1.44c-3.21-1.2-4.82-3.14-3.07-7,2.71-6,4.86-12.19,7.43-18.23.49-1.15,1.82-2,2.77-2.91.84.9,2,1.66,2.47,2.72q4.41,9.6,8.56,19.33c1.63,3.83-2.14,4.67-4.07,5.81C245.74,578.66,242.91,578.64,240.53,579.14Zm.29-22.26-6.55,16h13.61Z" transform="translate(0 3.66)" fill="#9896f1"/><path d="M255.56,544.61h2.9c9-.07,9.49.2,7.07,8.68A72.28,72.28,0,0,1,258.66,569c-2.28,4-4.47,3.49-6.3-.72-2.6-6-5.28-12-7.89-18-1.71-3.93-.88-5.29,3.37-5.47,2.57-.11,5.15,0,7.72,0Zm7,5.49H249l6.52,14.38,1.65.1Z" transform="translate(0 3.66)" fill="#9896f1"/><path d="M242.74,541.5c2.67-6.79,4.95-12.88,7.47-18.87,1.15-2.71,2.78-5.21,4.2-7.81,2.11,2.29,5,4.26,6.17,7a117.68,117.68,0,0,1,5.49,16.29c.26.92-1,3.26-1.57,3.28C257.63,541.59,250.75,541.5,242.74,541.5ZM256.41,522l-1.51.17-6.16,15.29h13.6Z" transform="translate(0 3.66)" fill="#9896f1"/><path d="M251.79,513.44c-2.18,5.54-4.08,10.47-6.06,15.38-1,2.53-2.08,5-3.29,7.49a11.28,11.28,0,0,1-2,2.27,12.24,12.24,0,0,1-1.95-2.35c-2.89-6.08-5.63-12.23-8.53-18.3-1.87-3.93-1.08-6.91,3.41-7.27a102.47,102.47,0,0,1,15.56.35C249.93,511.08,250.84,512.6,251.79,513.44Zm-4.37,0-14.5.68,7.52,16.72Z" transform="translate(0 3.66)" fill="#9896f1"/><path d="M226.51,514.84c3.69,8.33,7.3,16.25,10.59,24.31.26.64-1.63,3.07-2.62,3.13a151.77,151.77,0,0,1-16.93.2c-1-.05-2.8-2.2-2.69-3.22C215.81,530.18,218.71,521.88,226.51,514.84Zm-.88,8-1.31-.38-5.94,15.72h14.11Z" transform="translate(0 3.66)" fill="#9896f1"/><path d="M361.39,505c-7.83,7.83-8.48,16.37-6,22a1.35,1.35,0,0,1-.32,1.61L313.85,565.2c-3.49,3.1-3.33,6.79.09,10.2s7.1,3.57,10.2.08l36.62-41.21a1.35,1.35,0,0,1,1.61-.32c5.61,2.48,14.15,1.82,22-6,8.27-8.28,10.27-20.36,3.83-26.8S369.67,496.7,361.39,505Z" transform="translate(0 3.66)" fill="#9896f1"/><path d="M329.41,533.49a1.11,1.11,0,0,1,1.52.18l5.81,6.52,6.78-6L336.61,528a1.12,1.12,0,0,1-.18-1.53c3.66-5.61,1.7-11.47-3.55-15.88L316,496.79a2.14,2.14,0,0,0-3.16,0,2.09,2.09,0,0,0,0,3.16l13.93,13.94a2.21,2.21,0,0,1,0,3.34l-.07.07a2.21,2.21,0,0,1-3.34,0l-13.94-13.93a2.23,2.23,0,0,0-3.16,3.16l13.93,13.94a2.21,2.21,0,0,1,0,3.34l-.07.07a2.21,2.21,0,0,1-3.34,0L302.88,510a2.09,2.09,0,0,0-3.16,0,2.14,2.14,0,0,0,0,3.16L313.53,530C317.94,535.2,323.79,537.15,329.41,533.49Z" transform="translate(0 3.66)" fill="#9896f1"/><path d="M378.42,565.2l-22.61-20.11-7.35,8.28,19.68,22.11c3.09,3.49,6.78,3.33,10.19-.08S381.9,568.3,378.42,565.2Z" transform="translate(0 3.66)" fill="#9896f1"/><path d="M437.3,593.88c-15.1,1.5-26.8-11.26-32.44-25.66-6.61-16.88-6-33.82,2-50.15,4.25-8.72,10.51-15.54,20.16-19,16.16-5.79,30.5-.61,43.59,7.84,7.3,4.72,11.91,12.71,14.85,21.36,1.51,4.43,4.72,8.26,6.49,12.63,1,2.57,2.08,6.94.8,8.3-5.07,5.36-4.81,12.47-7.4,18.56a39.54,39.54,0,0,1-14.21,17.67C461.6,592.07,450.94,593.15,437.3,593.88Zm31.32-49.58c-.19-1.8-.37-5.2-.92-8.53-2-11.78-6.48-22.7-16.53-29.45-15.28-10.27-30.9-3.78-39.49,11.56-9.13,16.31-9.51,33.49-2.28,50.73a35.26,35.26,0,0,0,21.3,20.21c7.34,2.62,21.61-3,26.62-9.7C464.68,569.25,468.38,558.16,468.62,544.3Zm-11.3-39.55a59.25,59.25,0,0,1,15.17,41.15c-.22,15.69-5,29.5-16.81,40.69,15.8-2.82,26.05-13.65,28.56-29.41.4-2.51,2.27-4.75,3.18-7.22.75-2.05,2.15-5.62,1.44-6.16-5.54-4.27-5.63-11-8.13-16.55C476,516.62,468.55,508.75,457.32,504.75Z" transform="translate(0 3.66)" fill="#9896f1"/><path d="M423.11,546.89c1.78,0,3.56,0,5.34,0,5.46-.1,6.16.9,4.17,5.81-2.41,6-4.72,12-7.16,17.91-1.74,4.25-3.19,4.63-6,1.17a38.06,38.06,0,0,1-8.52-20.64c-.27-2.6.94-4.22,4-4,2.73.18,5.49,0,8.24,0Zm-8.21,5.27,5.8,14.68,1.71-.2,5.78-14.48Z" transform="translate(0 3.66)" fill="#9896f1"/><path d="M436.49,580.71a45.2,45.2,0,0,1-6.78-1.45c-3.22-1.2-4.83-3.13-3.08-7,2.72-6,4.86-12.19,7.43-18.22.49-1.16,1.83-1.95,2.77-2.92.84.9,2,1.67,2.47,2.73q4.43,9.6,8.56,19.33c1.63,3.83-2.13,4.66-4.07,5.8C441.7,580.23,438.88,580.21,436.49,580.71Zm.29-22.27c-2.43,5.94-4.34,10.59-6.55,16h13.61Z" transform="translate(0 3.66)" fill="#9896f1"/><path d="M451.53,546.17h2.9c9-.07,9.48.2,7.06,8.69a72.21,72.21,0,0,1-6.87,15.66c-2.28,4-4.47,3.5-6.29-.71-2.61-6-5.29-12-7.9-18-1.7-3.92-.88-5.28,3.37-5.46,2.57-.11,5.15,0,7.73,0Zm7,5.49H444.92l6.52,14.39,1.66.1C454.84,561.47,456.59,556.78,458.5,551.66Z" transform="translate(0 3.66)" fill="#9896f1"/><path d="M438.7,543.07c2.67-6.8,4.95-12.89,7.48-18.87,1.14-2.71,2.78-5.22,4.19-7.82,2.11,2.3,5,4.27,6.18,7A119,119,0,0,1,462,539.63c.27.92-1,3.27-1.56,3.29C453.6,543.15,446.72,543.07,438.7,543.07Zm13.67-19.55-1.51.18L444.7,539h13.6Z" transform="translate(0 3.66)" fill="#9896f1"/><path d="M447.75,515c-2.18,5.54-4.08,10.47-6.06,15.37-1,2.53-2.08,5-3.29,7.5a11.49,11.49,0,0,1-2,2.26,11.89,11.89,0,0,1-2-2.34c-2.89-6.08-5.62-12.24-8.53-18.31-1.87-3.93-1.08-6.91,3.41-7.27a105.1,105.1,0,0,1,15.56.35C445.89,512.64,446.81,514.17,447.75,515Zm-4.37,0-14.5.69,7.52,16.72C438.8,526.49,440.78,521.55,443.38,515.05Z" transform="translate(0 3.66)" fill="#9896f1"/><path d="M422.47,516.4c3.69,8.33,7.3,16.26,10.59,24.32.26.63-1.62,3.06-2.61,3.13a154.4,154.4,0,0,1-16.94.19c-1,0-2.79-2.19-2.69-3.21C411.77,531.74,414.67,523.44,422.47,516.4Zm-.88,8-1.31-.39-5.94,15.72h14.11C425.94,534.13,423.77,529.27,421.59,524.41Z" transform="translate(0 3.66)" fill="#9896f1"/><path d="M559,509.43c-7.83,7.84-8.49,16.38-6,22a1.34,1.34,0,0,1-.32,1.6L511.5,569.66c-3.49,3.09-3.33,6.78.08,10.2s7.1,3.57,10.2.08l36.62-41.22a1.37,1.37,0,0,1,1.61-.31c5.62,2.47,14.16,1.82,22-6,8.28-8.28,10.28-20.36,3.84-26.8S567.32,501.16,559,509.43Z" transform="translate(0 3.66)" fill="#9896f1"/><path d="M527.06,538a1.11,1.11,0,0,1,1.52.18l5.8,6.52,6.79-6-6.92-6.16a1.12,1.12,0,0,1-.17-1.52c3.66-5.62,1.7-11.48-3.55-15.88l-16.84-13.81a2.15,2.15,0,0,0-3.17,0,2.09,2.09,0,0,0,0,3.16l13.94,13.93a2.22,2.22,0,0,1,0,3.34l-.08.08a2.22,2.22,0,0,1-3.34,0l-13.93-13.93A2.23,2.23,0,1,0,504,511l13.93,13.94a2.19,2.19,0,0,1,0,3.33l-.08.08a2.21,2.21,0,0,1-3.34,0L500.53,514.4a2.09,2.09,0,0,0-3.16,0,2.14,2.14,0,0,0,0,3.17l13.8,16.84C515.58,539.66,521.44,541.61,527.06,538Z" transform="translate(0 3.66)" fill="#9896f1"/><path d="M576.06,569.66l-22.6-20.11-7.36,8.27,19.68,22.12c3.1,3.49,6.78,3.32,10.2-.09S579.55,572.76,576.06,569.66Z" transform="translate(0 3.66)" fill="#9896f1"/><path d="M42.57,585.63c-15.1,1.5-26.8-11.26-32.44-25.66-6.6-16.88-6-33.82,2-50.15,4.25-8.72,10.51-15.54,20.15-19,16.16-5.79,30.51-.61,43.6,7.85,7.3,4.71,11.91,12.7,14.85,21.35,1.5,4.43,4.72,8.26,6.48,12.63,1,2.57,2.09,6.94.8,8.3-5.06,5.36-4.8,12.47-7.39,18.56A39.56,39.56,0,0,1,76.4,577.19C66.88,583.82,56.22,584.9,42.57,585.63Zm31.32-49.58c-.19-1.8-.36-5.2-.92-8.53-2-11.78-6.48-22.7-16.52-29.45-15.28-10.26-30.9-3.78-39.49,11.56-9.13,16.31-9.52,33.49-2.28,50.73A35.24,35.24,0,0,0,36,580.57c7.34,2.62,21.62-3,26.63-9.7C70,561,73.66,549.91,73.89,536.05ZM62.6,496.5a59.2,59.2,0,0,1,15.16,41.16c-.22,15.68-5,29.49-16.81,40.68,15.81-2.82,26.06-13.65,28.56-29.41.4-2.51,2.28-4.75,3.19-7.22.75-2.05,2.15-5.62,1.44-6.16-5.54-4.27-5.63-11-8.13-16.55C81.24,508.37,73.83,500.5,62.6,496.5Z" transform="translate(0 3.66)" fill="#9896f1"/><path d="M28.39,538.64c1.78,0,3.56,0,5.33,0,5.47-.1,6.17.9,4.18,5.81-2.41,6-4.73,12-7.16,17.91-1.75,4.25-3.2,4.63-6,1.17a38,38,0,0,1-8.52-20.64c-.27-2.6.93-4.22,4-4,2.74.18,5.5,0,8.25,0Zm-8.22,5.27L26,558.59l1.7-.2c1.9-4.74,3.79-9.47,5.79-14.48Z" transform="translate(0 3.66)" fill="#9896f1"/><path d="M41.76,572.46A45.2,45.2,0,0,1,35,571c-3.21-1.2-4.83-3.13-3.07-7,2.71-6,4.86-12.18,7.42-18.22.5-1.16,1.83-1.95,2.78-2.92.84.9,2,1.67,2.47,2.73Q49,555.22,53.14,565c1.63,3.83-2.14,4.66-4.08,5.8S44.15,572,41.76,572.46Zm.3-22.27-6.55,16H49.12Z" transform="translate(0 3.66)" fill="#9896f1"/><path d="M56.8,537.92h2.9c9-.07,9.48.2,7.07,8.69a72,72,0,0,1-6.88,15.66c-2.27,4-4.47,3.5-6.29-.71-2.61-6-5.28-12-7.9-18-1.7-3.92-.87-5.28,3.37-5.46,2.58-.11,5.16,0,7.73,0Zm7,5.49H50.2l6.52,14.39,1.65.1Z" transform="translate(0 3.66)" fill="#9896f1"/><path d="M44,534.82c2.67-6.8,5-12.89,7.47-18.87,1.15-2.71,2.78-5.22,4.19-7.82,2.11,2.3,5,4.27,6.18,7a119,119,0,0,1,5.49,16.29c.26.93-1,3.27-1.57,3.29C58.87,534.9,52,534.82,44,534.82Zm13.67-19.54-1.51.17L50,530.74H63.58Z" transform="translate(0 3.66)" fill="#9896f1"/><path d="M53,506.76c-2.17,5.54-4.08,10.47-6.05,15.37-1,2.53-2.09,5-3.29,7.5a11.23,11.23,0,0,1-2,2.26,12.62,12.62,0,0,1-2-2.34c-2.88-6.08-5.62-12.24-8.52-18.31-1.88-3.93-1.09-6.91,3.4-7.27a105.26,105.26,0,0,1,15.57.35C51.17,504.39,52.08,505.92,53,506.76Zm-4.36,0-14.51.69,7.53,16.72C44.07,518.24,46.05,513.3,48.66,506.8Z" transform="translate(0 3.66)" fill="#9896f1"/><path d="M27.75,508.15c3.69,8.33,7.3,16.26,10.59,24.32.26.63-1.63,3.06-2.62,3.13a154.24,154.24,0,0,1-16.93.19c-1,0-2.8-2.19-2.69-3.21C17,523.49,20,515.2,27.75,508.15Zm-.88,8-1.31-.38c-1.95,5.16-3.91,10.32-5.94,15.71H33.73C31.22,525.88,29,521,26.87,516.16Z" transform="translate(0 3.66)" fill="#9896f1"/><path d="M67.24,616.12c-7.74,7.74-8.39,16.18-5.94,21.73a1.34,1.34,0,0,1-.31,1.59L20.27,675.61c-3.44,3.07-3.29,6.71.08,10.08s7,3.53,10.08.09l36.18-40.72a1.35,1.35,0,0,1,1.59-.32c5.55,2.45,14,1.8,21.72-5.93,8.18-8.18,10.15-20.11,3.79-26.48S75.41,608,67.24,616.12Z" transform="translate(0 3.66)" fill="#9896f1"/><path d="M35.64,644.29a1.12,1.12,0,0,1,1.51.18l5.73,6.44,6.7-6-6.83-6.08a1.09,1.09,0,0,1-.17-1.5c3.61-5.55,1.68-11.34-3.51-15.69L22.43,608a2.12,2.12,0,0,0-3.12,0,2.08,2.08,0,0,0,0,3.13l13.77,13.77a2.18,2.18,0,0,1,0,3.29l-.08.08a2.19,2.19,0,0,1-3.3,0L15.93,614.53a2.06,2.06,0,0,0-3.12,0,2.08,2.08,0,0,0,0,3.13l13.76,13.77a2.16,2.16,0,0,1,0,3.29l-.07.08a2.19,2.19,0,0,1-3.3,0L9.43,621a2.06,2.06,0,0,0-3.12,0,2.12,2.12,0,0,0,0,3.13L20,640.79C24.31,646,30.09,647.91,35.64,644.29Z" transform="translate(0 3.66)" fill="#9896f1"/><path d="M84.05,675.62,61.72,655.75l-7.26,8.18L73.9,685.78c3.06,3.44,6.7,3.28,10.07-.09S87.49,678.68,84.05,675.62Z" transform="translate(0 3.66)" fill="#9896f1"/><path d="M142,702.41c-14.91,1.47-26.48-11.13-32-25.36-6.52-16.67-5.89-33.41,2-49.54,4.2-8.61,10.39-15.35,19.92-18.76,16-5.72,30.13-.61,43.06,7.75,7.21,4.66,11.77,12.55,14.67,21.1,1.49,4.37,4.67,8.16,6.41,12.48,1,2.53,2.06,6.85.79,8.2-5,5.29-4.75,12.31-7.31,18.33a39,39,0,0,1-14,17.46C166,700.62,155.45,701.68,142,702.41Zm30.94-49c-.18-1.78-.36-5.14-.91-8.43-1.94-11.65-6.4-22.43-16.32-29.1-15.1-10.14-30.53-3.73-39,11.42-9,16.11-9.4,33.09-2.26,50.12a34.8,34.8,0,0,0,21,20c7.25,2.59,21.35-2.93,26.31-9.57C169,678.07,172.68,667.12,172.91,653.43Zm-11.16-39.08a58.51,58.51,0,0,1,15,40.66c-.22,15.5-4.92,29.14-16.61,40.19,15.61-2.78,25.74-13.48,28.21-29.05.4-2.48,2.25-4.69,3.15-7.13.74-2,2.12-5.55,1.42-6.09-5.47-4.22-5.56-10.84-8-16.35C180.17,626.08,172.85,618.3,161.75,614.35Z" transform="translate(0 3.66)" fill="#9896f1"/><path d="M128,656c1.76,0,3.51,0,5.27,0,5.39-.11,6.09.88,4.12,5.73-2.38,5.89-4.66,11.82-7.07,17.69-1.72,4.2-3.16,4.58-6,1.16a37.6,37.6,0,0,1-8.42-20.39c-.26-2.57.93-4.16,3.93-4,2.71.18,5.43,0,8.15,0Zm-8.12,5.21,5.73,14.5,1.69-.2,5.72-14.3Z" transform="translate(0 3.66)" fill="#9896f1"/><path d="M141.17,689.39a44.41,44.41,0,0,1-6.7-1.43c-3.17-1.18-4.77-3.09-3-6.89,2.68-5.9,4.8-12,7.34-18,.49-1.15,1.81-1.93,2.74-2.89.83.89,2,1.65,2.44,2.7q4.37,9.48,8.46,19.09c1.61,3.79-2.11,4.61-4,5.74S143.53,688.9,141.17,689.39Zm.29-22c-2.4,5.86-4.29,10.45-6.47,15.77h13.45Z" transform="translate(0 3.66)" fill="#9896f1"/><path d="M156,655.27h2.86c8.86-.06,9.37.2,7,8.58a71,71,0,0,1-6.79,15.48c-2.25,3.95-4.41,3.45-6.21-.7-2.58-6-5.22-11.86-7.8-17.8-1.69-3.88-.87-5.23,3.32-5.4,2.54-.11,5.09,0,7.64,0Zm6.89,5.43H149.5L156,674.91l1.63.1C159.31,670.38,161,665.75,162.92,660.7Z" transform="translate(0 3.66)" fill="#9896f1"/><path d="M143.36,652.21c2.64-6.71,4.89-12.73,7.38-18.64,1.13-2.68,2.75-5.16,4.14-7.72,2.09,2.26,4.9,4.21,6.11,6.87a119.29,119.29,0,0,1,5.42,16.09c.26.91-1,3.23-1.55,3.25C158.07,652.29,151.28,652.21,143.36,652.21Zm13.5-19.31-1.49.17-6.09,15.1h13.44Z" transform="translate(0 3.66)" fill="#9896f1"/><path d="M152.3,624.49c-2.15,5.47-4,10.34-6,15.18-1,2.5-2.06,5-3.25,7.41a10.66,10.66,0,0,1-2,2.23,11.28,11.28,0,0,1-1.93-2.31c-2.86-6-5.56-12.08-8.42-18.08-1.86-3.89-1.08-6.83,3.36-7.19a103.9,103.9,0,0,1,15.37.35C150.46,622.15,151.37,623.66,152.3,624.49Zm-4.32,0-14.33.68,7.44,16.52Z" transform="translate(0 3.66)" fill="#9896f1"/><path d="M127.33,625.87c3.64,8.22,7.21,16.06,10.46,24,.25.62-1.61,3-2.59,3.09a150.45,150.45,0,0,1-16.72.19c-1,0-2.77-2.17-2.66-3.18C116.75,641,119.62,632.82,127.33,625.87Zm-.87,7.9-1.3-.38c-1.93,5.11-3.85,10.21-5.87,15.53h13.94C130.75,643.37,128.6,638.57,126.46,633.77Z" transform="translate(0 3.66)" fill="#9896f1"/><path d="M260.58,616.12c-7.74,7.74-8.39,16.18-5.94,21.73a1.34,1.34,0,0,1-.31,1.59l-40.72,36.17c-3.45,3.07-3.29,6.71.08,10.08s7,3.53,10.08.09L260,645.06a1.35,1.35,0,0,1,1.59-.32c5.55,2.45,14,1.8,21.72-5.93,8.18-8.18,10.15-20.11,3.79-26.48S268.75,608,260.58,616.12Z" transform="translate(0 3.66)" fill="#9896f1"/><path d="M229,644.29a1.12,1.12,0,0,1,1.51.18l5.73,6.44,6.7-6-6.83-6.08a1.09,1.09,0,0,1-.17-1.5c3.61-5.55,1.68-11.34-3.51-15.69L215.77,608a2.12,2.12,0,0,0-3.12,0,2.08,2.08,0,0,0,0,3.13l13.77,13.77a2.18,2.18,0,0,1,0,3.29l-.08.08a2.19,2.19,0,0,1-3.3,0l-13.77-13.77a2.21,2.21,0,0,0-3.12,3.13l13.76,13.77a2.16,2.16,0,0,1,0,3.29l-.07.08a2.19,2.19,0,0,1-3.3,0L202.77,621a2.06,2.06,0,0,0-3.12,0,2.12,2.12,0,0,0,0,3.13l13.64,16.63C217.65,646,223.43,647.91,229,644.29Z" transform="translate(0 3.66)" fill="#9896f1"/><path d="M277.39,675.62l-22.33-19.87-7.26,8.18,19.44,21.85c3.06,3.44,6.7,3.28,10.07-.09S280.83,678.68,277.39,675.62Z" transform="translate(0 3.66)" fill="#9896f1"/><path d="M335.56,704c-14.91,1.48-26.48-11.12-32.05-25.35-6.52-16.67-5.89-33.41,2-49.55,4.2-8.61,10.39-15.34,19.92-18.76,16-5.72,30.13-.6,43.06,7.76,7.21,4.66,11.77,12.55,14.67,21.09,1.49,4.38,4.67,8.16,6.41,12.48,1,2.54,2.06,6.86.79,8.21-5,5.28-4.75,12.31-7.31,18.33a39,39,0,0,1-14,17.45C359.57,702.16,349,703.23,335.56,704Zm30.94-49c-.18-1.78-.36-5.13-.91-8.42-1.94-11.65-6.4-22.43-16.32-29.1-15.1-10.14-30.53-3.73-39,11.42C301.24,645,300.86,662,308,679a34.79,34.79,0,0,0,21,20c7.25,2.59,21.35-2.94,26.31-9.58C362.62,679.62,366.27,668.67,366.5,655ZM355.34,615.9a58.49,58.49,0,0,1,15,40.66c-.22,15.49-4.92,29.14-16.61,40.19,15.61-2.79,25.74-13.48,28.21-29,.4-2.48,2.25-4.7,3.15-7.14.74-2,2.12-5.55,1.42-6.08-5.47-4.23-5.56-10.84-8-16.35C373.76,627.62,366.44,619.85,355.34,615.9Z" transform="translate(0 3.66)" fill="#9896f1"/><path d="M321.55,657.53c1.76,0,3.51,0,5.27,0,5.4-.1,6.09.88,4.12,5.74-2.38,5.89-4.66,11.81-7.07,17.69-1.72,4.2-3.16,4.58-6,1.16a37.55,37.55,0,0,1-8.41-20.4c-.27-2.56.92-4.16,3.92-4,2.71.19,5.43,0,8.15,0Zm-8.12,5.21,5.74,14.49,1.68-.19c1.87-4.68,3.74-9.36,5.72-14.3Z" transform="translate(0 3.66)" fill="#9896f1"/><path d="M334.76,690.94a45.68,45.68,0,0,1-6.7-1.43c-3.17-1.19-4.77-3.1-3-6.9,2.69-5.89,4.8-12,7.34-18,.49-1.14,1.81-1.93,2.74-2.88.83.89,2,1.64,2.44,2.69q4.36,9.5,8.46,19.1c1.61,3.78-2.11,4.61-4,5.73C339.91,690.46,337.12,690.44,334.76,690.94Zm.29-22c-2.4,5.86-4.29,10.46-6.47,15.77H342Z" transform="translate(0 3.66)" fill="#9896f1"/><path d="M349.62,656.82h2.86c8.86-.07,9.37.2,7,8.58a71,71,0,0,1-6.79,15.48c-2.25,3.94-4.41,3.45-6.21-.71-2.58-5.94-5.22-11.85-7.8-17.8-1.69-3.87-.87-5.22,3.32-5.4,2.55-.1,5.09,0,7.64,0Zm6.89,5.42H343.09l6.45,14.22,1.63.09C352.9,671.93,354.62,667.3,356.51,662.24Z" transform="translate(0 3.66)" fill="#9896f1"/><path d="M337,653.75c2.64-6.71,4.89-12.72,7.38-18.64,1.13-2.68,2.75-5.15,4.14-7.72,2.09,2.27,4.9,4.21,6.11,6.88A119.29,119.29,0,0,1,360,650.36c.26.91-1,3.23-1.55,3.25C351.66,653.84,344.87,653.75,337,653.75Zm13.5-19.3-1.49.17-6.09,15.1h13.44Z" transform="translate(0 3.66)" fill="#9896f1"/><path d="M345.89,626c-2.15,5.48-4,10.35-6,15.19-1,2.5-2.06,5-3.25,7.41a10.92,10.92,0,0,1-2,2.23,11.9,11.9,0,0,1-1.93-2.31c-2.86-6-5.56-12.09-8.42-18.09-1.86-3.88-1.08-6.83,3.36-7.18a101.24,101.24,0,0,1,15.37.35C344.05,623.7,345,625.21,345.89,626Zm-4.32.05-14.33.67,7.44,16.52Z" transform="translate(0 3.66)" fill="#9896f1"/><path d="M320.92,627.41c3.64,8.23,7.21,16.06,10.46,24,.25.63-1.61,3-2.59,3.09a152.91,152.91,0,0,1-16.72.2c-1-.05-2.77-2.17-2.66-3.18C310.34,642.56,313.21,634.37,320.92,627.41Zm-.87,7.91-1.3-.38c-1.93,5.1-3.85,10.2-5.86,15.53h13.93C324.34,644.92,322.19,640.12,320.05,635.32Z" transform="translate(0 3.66)" fill="#9896f1"/><path d="M455.83,620.53c-7.74,7.73-8.38,16.17-5.94,21.72a1.33,1.33,0,0,1-.31,1.59L408.86,680c-3.44,3.06-3.28,6.7.09,10.08s7,3.52,10.07.08l36.18-40.72a1.34,1.34,0,0,1,1.59-.31c5.55,2.44,14,1.8,21.73-5.94,8.17-8.17,10.15-20.11,3.78-26.47S464,612.35,455.83,620.53Z" transform="translate(0 3.66)" fill="#9896f1"/><path d="M424.23,648.7a1.1,1.1,0,0,1,1.51.17l5.73,6.45,6.71-6-6.84-6.08a1.1,1.1,0,0,1-.17-1.51c3.62-5.55,1.68-11.33-3.51-15.69L411,612.44a2.12,2.12,0,0,0-3.13,0,2.06,2.06,0,0,0,0,3.12l13.77,13.77a2.19,2.19,0,0,1,0,3.3l-.08.07a2.18,2.18,0,0,1-3.3,0l-13.76-13.76a2.21,2.21,0,0,0-3.13,3.12l13.77,13.77a2.19,2.19,0,0,1,0,3.3l-.08.08a2.17,2.17,0,0,1-3.29,0L398,625.44a2.08,2.08,0,0,0-3.13,0,2.11,2.11,0,0,0,0,3.12l13.64,16.64C412.9,650.39,418.69,652.31,424.23,648.7Z" transform="translate(0 3.66)" fill="#9896f1"/><path d="M472.65,680l-22.33-19.87-7.27,8.17,19.44,21.85c3.06,3.44,6.7,3.28,10.07-.09S476.09,683.09,472.65,680Z" transform="translate(0 3.66)" fill="#9896f1"/><path d="M534.3,702.76c-14.92,1.48-26.48-11.12-32-25.35-6.53-16.67-5.9-33.41,2-49.55,4.2-8.61,10.38-15.34,19.92-18.76,16-5.72,30.13-.6,43.06,7.76,7.21,4.66,11.77,12.55,14.67,21.09,1.49,4.38,4.66,8.16,6.41,12.48,1,2.54,2.06,6.86.79,8.2-5,5.29-4.75,12.32-7.31,18.34a39,39,0,0,1-14,17.45C558.31,701,547.78,702,534.3,702.76Zm30.94-49c-.19-1.78-.36-5.13-.91-8.43-1.94-11.64-6.4-22.42-16.33-29.09-15.09-10.14-30.52-3.74-39,11.42-9,16.11-9.4,33.09-2.25,50.11a34.79,34.79,0,0,0,21,20c7.25,2.59,21.35-2.94,26.3-9.58C561.35,678.43,565,667.47,565.24,653.78Zm-11.16-39.07a58.49,58.49,0,0,1,15,40.66c-.22,15.49-4.91,29.14-16.61,40.19,15.62-2.79,25.75-13.48,28.22-29,.39-2.48,2.25-4.7,3.15-7.14.74-2,2.12-5.55,1.42-6.09-5.48-4.22-5.56-10.83-8-16.34C572.5,626.43,565.17,618.66,554.08,614.71Z" transform="translate(0 3.66)" fill="#9896f1"/><path d="M520.29,656.34c1.75,0,3.51,0,5.27,0,5.39-.1,6.09.88,4.12,5.74-2.38,5.89-4.67,11.81-7.07,17.69-1.73,4.2-3.16,4.58-6,1.16a37.64,37.64,0,0,1-8.42-20.4c-.26-2.56.93-4.16,3.93-4,2.7.19,5.43,0,8.15,0Zm-8.12,5.21L517.9,676l1.69-.19,5.71-14.3Z" transform="translate(0 3.66)" fill="#9896f1"/><path d="M533.5,689.75a45.68,45.68,0,0,1-6.7-1.43c-3.17-1.19-4.77-3.1-3-6.9,2.68-5.89,4.8-12,7.34-18,.49-1.14,1.81-1.93,2.74-2.88.83.89,1.95,1.64,2.44,2.69q4.37,9.49,8.46,19.1c1.61,3.78-2.12,4.61-4,5.73C538.65,689.27,535.86,689.25,533.5,689.75Zm.29-22c-2.4,5.86-4.29,10.46-6.47,15.77h13.44Z" transform="translate(0 3.66)" fill="#9896f1"/><path d="M548.36,655.63h2.86c8.85-.07,9.37.2,7,8.58a71,71,0,0,1-6.79,15.48c-2.25,3.94-4.41,3.45-6.22-.71-2.57-5.94-5.22-11.85-7.8-17.8-1.68-3.87-.87-5.22,3.33-5.4,2.54-.1,5.09,0,7.64,0Zm6.89,5.42H541.83l6.44,14.21,1.64.1C551.63,670.74,553.36,666.11,555.25,661.05Z" transform="translate(0 3.66)" fill="#9896f1"/><path d="M535.69,652.56c2.64-6.71,4.89-12.72,7.38-18.64,1.13-2.68,2.75-5.15,4.14-7.72,2.09,2.27,4.9,4.21,6.1,6.88a116.11,116.11,0,0,1,5.42,16.09c.26.91-1,3.22-1.54,3.24C550.4,652.65,543.6,652.56,535.69,652.56Zm13.5-19.3-1.49.17-6.09,15.1h13.44Z" transform="translate(0 3.66)" fill="#9896f1"/><path d="M544.62,624.84c-2.15,5.47-4,10.35-6,15.19-1,2.5-2.06,5-3.25,7.4a10.71,10.71,0,0,1-2,2.24,12,12,0,0,1-1.94-2.32c-2.85-6-5.55-12.08-8.42-18.08-1.85-3.88-1.07-6.83,3.37-7.18a101.24,101.24,0,0,1,15.37.35C542.79,622.51,543.69,624,544.62,624.84Zm-4.31,0-14.33.67,7.43,16.52C535.78,636.19,537.74,631.31,540.31,624.89Z" transform="translate(0 3.66)" fill="#9896f1"/><path d="M519.65,626.22c3.65,8.23,7.21,16.06,10.47,24,.25.63-1.61,3-2.59,3.09a153.06,153.06,0,0,1-16.73.2c-1,0-2.76-2.18-2.66-3.18C509.08,641.37,512,633.18,519.65,626.22Zm-.87,7.91-1.29-.38c-1.93,5.1-3.86,10.2-5.87,15.53h13.94Z" transform="translate(0 3.66)" fill="#9896f1"/><path d="M165.69,740.88c-7.84,7.83-8.49,16.37-6,22a1.35,1.35,0,0,1-.32,1.61L118.14,801.1c-3.48,3.1-3.32,6.79.09,10.2s7.1,3.57,10.2.08l36.62-41.21a1.35,1.35,0,0,1,1.61-.32c5.62,2.48,14.16,1.82,22-6,8.28-8.27,10.28-20.36,3.83-26.8S174,732.6,165.69,740.88Z" transform="translate(0 3.66)" fill="#9896f1"/><path d="M133.7,769.39a1.12,1.12,0,0,1,1.53.18l5.8,6.52,6.79-6-6.92-6.15a1.12,1.12,0,0,1-.18-1.53c3.66-5.61,1.7-11.47-3.55-15.88l-16.84-13.81a2.14,2.14,0,0,0-3.16,0,2.09,2.09,0,0,0,0,3.16l13.94,13.94a2.22,2.22,0,0,1,0,3.34l-.08.07a2.21,2.21,0,0,1-3.34,0l-13.94-13.93a2.23,2.23,0,1,0-3.16,3.16l13.94,13.94a2.22,2.22,0,0,1,0,3.34l-.08.07a2.21,2.21,0,0,1-3.34,0l-13.94-13.93a2.09,2.09,0,0,0-3.16,0,2.14,2.14,0,0,0,0,3.16l13.81,16.84C122.23,771.1,128.09,773.05,133.7,769.39Z" transform="translate(0 3.66)" fill="#9896f1"/><path d="M182.71,801.11,160.1,781l-7.35,8.28,19.68,22.11c3.1,3.49,6.78,3.33,10.19-.08S186.19,804.2,182.71,801.11Z" transform="translate(0 3.66)" fill="#9896f1"/><path d="M241.33,828.22c-15.09,1.49-26.8-11.26-32.44-25.67-6.6-16.87-6-33.82,2-50.15,4.25-8.71,10.51-15.53,20.16-19,16.16-5.79,30.5-.61,43.59,7.85,7.3,4.72,11.91,12.71,14.85,21.35,1.51,4.43,4.72,8.26,6.48,12.64,1,2.56,2.09,6.94.8,8.3-5.06,5.35-4.8,12.46-7.39,18.56a39.55,39.55,0,0,1-14.22,17.67C265.64,826.4,255,827.48,241.33,828.22Zm31.33-49.58c-.19-1.8-.37-5.2-.93-8.53-2-11.79-6.47-22.71-16.52-29.46-15.28-10.26-30.9-3.77-39.49,11.56-9.13,16.31-9.51,33.5-2.28,50.73a35.18,35.18,0,0,0,21.29,20.21c7.35,2.62,21.62-3,26.63-9.69C268.72,803.59,272.42,792.5,272.66,778.64Zm-11.3-39.56a59.26,59.26,0,0,1,15.17,41.16c-.23,15.69-5,29.5-16.82,40.69,15.81-2.83,26.06-13.65,28.57-29.41.39-2.51,2.27-4.75,3.18-7.22.75-2,2.15-5.62,1.44-6.17-5.54-4.27-5.63-11-8.13-16.54C280,751,272.59,743.08,261.36,739.08Z" transform="translate(0 3.66)" fill="#9896f1"/><path d="M227.15,781.22c1.78,0,3.56,0,5.34,0,5.46-.1,6.16.89,4.17,5.81-2.41,6-4.72,12-7.16,17.9-1.74,4.25-3.2,4.64-6.05,1.18a38,38,0,0,1-8.52-20.65c-.27-2.59.94-4.21,4-4,2.74.19,5.5,0,8.25,0Zm-8.21,5.28,5.8,14.67,1.71-.2,5.78-14.47Z" transform="translate(0 3.66)" fill="#9896f1"/><path d="M240.53,815a46.65,46.65,0,0,1-6.79-1.44c-3.21-1.2-4.82-3.14-3.07-7,2.71-6,4.86-12.19,7.43-18.22.49-1.16,1.82-2,2.77-2.92.84.9,2,1.66,2.47,2.72q4.41,9.6,8.56,19.33c1.63,3.83-2.14,4.67-4.07,5.81C245.74,814.56,242.91,814.54,240.53,815Zm.29-22.26-6.55,16h13.61Z" transform="translate(0 3.66)" fill="#9896f1"/><path d="M255.56,780.51h2.9c9-.07,9.49.2,7.07,8.68a72.28,72.28,0,0,1-6.87,15.67c-2.28,4-4.47,3.49-6.3-.71-2.6-6-5.28-12-7.89-18-1.71-3.92-.88-5.29,3.37-5.47,2.57-.11,5.15,0,7.72,0Zm7,5.49H249l6.52,14.38,1.65.1Z" transform="translate(0 3.66)" fill="#9896f1"/><path d="M242.74,777.4c2.67-6.79,4.95-12.88,7.47-18.87,1.15-2.71,2.78-5.21,4.2-7.81,2.11,2.3,5,4.26,6.17,7A117.68,117.68,0,0,1,266.07,774c.26.92-1,3.26-1.57,3.28C257.63,777.49,250.75,777.4,242.74,777.4Zm13.67-19.54-1.51.17-6.16,15.29h13.6Z" transform="translate(0 3.66)" fill="#9896f1"/><path d="M251.79,749.34c-2.18,5.54-4.08,10.47-6.06,15.38-1,2.53-2.08,5-3.29,7.49a11,11,0,0,1-2,2.27,12.24,12.24,0,0,1-1.95-2.35c-2.89-6.08-5.63-12.23-8.53-18.3-1.87-3.93-1.08-6.91,3.41-7.27a102.47,102.47,0,0,1,15.56.35C249.93,747,250.84,748.51,251.79,749.34Zm-4.37,0-14.5.68,7.52,16.72Z" transform="translate(0 3.66)" fill="#9896f1"/><path d="M226.51,750.74c3.69,8.33,7.3,16.26,10.59,24.31.26.64-1.63,3.07-2.62,3.13a151.77,151.77,0,0,1-16.93.2c-1,0-2.8-2.2-2.69-3.22C215.81,766.08,218.71,757.78,226.51,750.74Zm-.88,8-1.31-.38-5.94,15.72h14.11Z" transform="translate(0 3.66)" fill="#9896f1"/><path d="M361.39,740.88c-7.83,7.83-8.48,16.37-6,22a1.35,1.35,0,0,1-.32,1.61L313.85,801.1c-3.49,3.1-3.33,6.79.09,10.2s7.1,3.57,10.2.08l36.62-41.21a1.35,1.35,0,0,1,1.61-.32c5.61,2.48,14.15,1.82,22-6,8.27-8.27,10.27-20.36,3.83-26.8S369.67,732.6,361.39,740.88Z" transform="translate(0 3.66)" fill="#9896f1"/><path d="M329.41,769.39a1.11,1.11,0,0,1,1.52.18l5.81,6.52,6.78-6-6.91-6.15a1.12,1.12,0,0,1-.18-1.53c3.66-5.61,1.7-11.47-3.55-15.88L316,732.69a2.14,2.14,0,0,0-3.16,0,2.09,2.09,0,0,0,0,3.16l13.93,13.94a2.21,2.21,0,0,1,0,3.34l-.07.07a2.21,2.21,0,0,1-3.34,0l-13.94-13.93a2.23,2.23,0,1,0-3.16,3.16l13.93,13.94a2.21,2.21,0,0,1,0,3.34l-.07.07a2.21,2.21,0,0,1-3.34,0l-13.94-13.93a2.09,2.09,0,0,0-3.16,0,2.14,2.14,0,0,0,0,3.16l13.81,16.84C317.94,771.1,323.79,773.05,329.41,769.39Z" transform="translate(0 3.66)" fill="#9896f1"/><path d="M378.42,801.11,355.81,781l-7.35,8.28,19.68,22.11c3.09,3.49,6.78,3.33,10.19-.08S381.9,804.2,378.42,801.11Z" transform="translate(0 3.66)" fill="#9896f1"/><path d="M437.3,829.78c-15.1,1.5-26.8-11.26-32.44-25.66-6.61-16.88-6-33.82,2-50.15,4.25-8.72,10.51-15.54,20.16-19,16.16-5.79,30.5-.61,43.59,7.85,7.3,4.71,11.91,12.7,14.85,21.35,1.51,4.43,4.72,8.26,6.49,12.63,1,2.57,2.08,6.94.8,8.31-5.07,5.35-4.81,12.46-7.4,18.55a39.54,39.54,0,0,1-14.21,17.67C461.6,828,450.94,829.05,437.3,829.78Zm31.32-49.58c-.19-1.8-.37-5.19-.92-8.53-2-11.78-6.48-22.7-16.53-29.45-15.28-10.26-30.9-3.78-39.49,11.56-9.13,16.31-9.51,33.49-2.28,50.73a35.26,35.26,0,0,0,21.3,20.21c7.34,2.62,21.61-3,26.62-9.7C464.68,805.15,468.38,794.06,468.62,780.2Zm-11.3-39.55a59.26,59.26,0,0,1,15.17,41.16c-.22,15.68-5,29.49-16.81,40.68,15.8-2.82,26.05-13.64,28.56-29.41.4-2.51,2.27-4.75,3.18-7.22.75-2.05,2.15-5.62,1.44-6.16-5.54-4.27-5.63-11-8.13-16.55C476,752.52,468.55,744.65,457.32,740.65Z" transform="translate(0 3.66)" fill="#9896f1"/><path d="M423.11,782.79c1.78,0,3.56,0,5.34,0,5.46-.1,6.16.9,4.17,5.81-2.41,6-4.72,12-7.16,17.91-1.74,4.25-3.19,4.63-6,1.17A38.06,38.06,0,0,1,410.89,787c-.27-2.6.94-4.22,4-4,2.73.18,5.49,0,8.24,0Zm-8.21,5.27,5.8,14.68,1.71-.2,5.78-14.48Z" transform="translate(0 3.66)" fill="#9896f1"/><path d="M436.49,816.61a45.2,45.2,0,0,1-6.78-1.45c-3.22-1.2-4.83-3.13-3.08-7,2.72-6,4.86-12.18,7.43-18.22.49-1.16,1.83-2,2.77-2.92.84.9,2,1.67,2.47,2.73q4.43,9.6,8.56,19.33c1.63,3.83-2.13,4.66-4.07,5.8C441.7,816.13,438.88,816.11,436.49,816.61Zm.29-22.27c-2.43,5.94-4.34,10.59-6.55,16h13.61Z" transform="translate(0 3.66)" fill="#9896f1"/><path d="M451.53,782.07h2.9c9-.06,9.48.2,7.06,8.69a72,72,0,0,1-6.87,15.66c-2.28,4-4.47,3.5-6.29-.71-2.61-6-5.29-12-7.9-18-1.7-3.93-.88-5.29,3.37-5.47,2.57-.11,5.15,0,7.73,0Zm7,5.49H444.92L451.44,802l1.66.1C454.84,797.37,456.59,792.68,458.5,787.56Z" transform="translate(0 3.66)" fill="#9896f1"/><path d="M438.7,779c2.67-6.79,4.95-12.88,7.48-18.87,1.14-2.71,2.78-5.22,4.19-7.82,2.11,2.3,5,4.27,6.18,7A119.31,119.31,0,0,1,462,775.53c.27.93-1,3.27-1.56,3.29C453.6,779.06,446.72,779,438.7,779Zm13.67-19.54-1.51.17-6.16,15.29h13.6Z" transform="translate(0 3.66)" fill="#9896f1"/><path d="M447.75,750.91c-2.18,5.54-4.08,10.47-6.06,15.37-1,2.53-2.08,5.05-3.29,7.5a11.49,11.49,0,0,1-2,2.26,11.61,11.61,0,0,1-2-2.34c-2.89-6.08-5.62-12.23-8.53-18.31-1.87-3.93-1.08-6.91,3.41-7.27a105.1,105.1,0,0,1,15.56.35C445.89,748.54,446.81,750.07,447.75,750.91Zm-4.37.05-14.5.68,7.52,16.72C438.8,762.39,440.78,757.45,443.38,751Z" transform="translate(0 3.66)" fill="#9896f1"/><path d="M422.47,752.3c3.69,8.33,7.3,16.26,10.59,24.32.26.63-1.62,3.06-2.61,3.13a154.4,154.4,0,0,1-16.94.19c-1,0-2.79-2.19-2.69-3.21C411.77,767.64,414.67,759.35,422.47,752.3Zm-.88,8-1.31-.38-5.94,15.71h14.11C425.94,770,423.77,765.17,421.59,760.31Z" transform="translate(0 3.66)" fill="#9896f1"/><path d="M559,745.34c-7.83,7.83-8.49,16.37-6,22a1.35,1.35,0,0,1-.32,1.61L511.5,805.56c-3.49,3.1-3.33,6.78.08,10.2s7.1,3.57,10.2.08l36.62-41.21a1.35,1.35,0,0,1,1.61-.32c5.62,2.47,14.16,1.82,22-6,8.28-8.28,10.28-20.36,3.84-26.8S567.32,737.06,559,745.34Z" transform="translate(0 3.66)" fill="#9896f1"/><path d="M527.06,773.85a1.11,1.11,0,0,1,1.52.18l5.8,6.52,6.79-6-6.92-6.16a1.12,1.12,0,0,1-.17-1.52c3.66-5.62,1.7-11.47-3.55-15.88l-16.84-13.81a2.15,2.15,0,0,0-3.17,0,2.09,2.09,0,0,0,0,3.16l13.94,13.94a2.21,2.21,0,0,1,0,3.33l-.08.08a2.21,2.21,0,0,1-3.34,0l-13.93-13.93a2.23,2.23,0,1,0-3.16,3.16l13.93,13.94a2.19,2.19,0,0,1,0,3.33l-.08.08a2.21,2.21,0,0,1-3.34,0l-13.93-13.93a2.09,2.09,0,0,0-3.16,0,2.13,2.13,0,0,0,0,3.16l13.8,16.84C515.58,775.56,521.44,777.51,527.06,773.85Z" transform="translate(0 3.66)" fill="#9896f1"/><path d="M576.06,805.56l-22.6-20.11-7.36,8.27,19.68,22.12c3.1,3.49,6.78,3.32,10.2-.09S579.55,808.66,576.06,805.56Z" transform="translate(0 3.66)" fill="#9896f1"/><path d="M42.57,821.53c-15.1,1.5-26.8-11.26-32.44-25.66-6.6-16.88-6-33.82,2-50.15,4.25-8.72,10.51-15.54,20.15-19,16.16-5.79,30.51-.61,43.6,7.85,7.3,4.71,11.91,12.7,14.85,21.35,1.5,4.43,4.72,8.26,6.48,12.63,1,2.57,2.09,6.94.8,8.31-5.06,5.35-4.8,12.46-7.39,18.55A39.56,39.56,0,0,1,76.4,813.09C66.88,819.72,56.22,820.8,42.57,821.53ZM73.89,772c-.19-1.8-.36-5.19-.92-8.53-2-11.78-6.48-22.7-16.52-29.45-15.28-10.26-30.9-3.78-39.49,11.56C7.83,761.84,7.44,779,14.68,796.26A35.24,35.24,0,0,0,36,816.47c7.34,2.62,21.62-3,26.63-9.7C70,796.9,73.66,785.81,73.89,772ZM62.6,732.4a59.2,59.2,0,0,1,15.16,41.16c-.22,15.68-5,29.49-16.81,40.68C76.76,811.42,87,800.6,89.51,784.83c.4-2.5,2.28-4.75,3.19-7.22.75-2,2.15-5.62,1.44-6.16-5.54-4.27-5.63-11-8.13-16.55C81.24,744.27,73.83,736.4,62.6,732.4Z" transform="translate(0 3.66)" fill="#9896f1"/><path d="M28.39,774.54c1.78,0,3.56,0,5.33,0,5.47-.1,6.17.9,4.18,5.81-2.41,6-4.73,12-7.16,17.91-1.75,4.25-3.2,4.63-6,1.17a38,38,0,0,1-8.52-20.64c-.27-2.6.93-4.21,4-4,2.74.18,5.5,0,8.25,0Zm-8.22,5.27L26,794.49l1.7-.2c1.9-4.74,3.79-9.47,5.79-14.48Z" transform="translate(0 3.66)" fill="#9896f1"/><path d="M41.76,808.36A45.2,45.2,0,0,1,35,806.91c-3.21-1.2-4.83-3.13-3.07-7,2.71-6,4.86-12.18,7.42-18.22.5-1.15,1.83-2,2.78-2.92.84.9,2,1.67,2.47,2.73q4.41,9.6,8.56,19.33c1.63,3.83-2.14,4.67-4.08,5.8S44.15,807.86,41.76,808.36Zm.3-22.26c-2.44,5.93-4.34,10.58-6.55,16H49.12Z" transform="translate(0 3.66)" fill="#9896f1"/><path d="M56.8,773.82h2.9c9-.06,9.48.21,7.07,8.69a72,72,0,0,1-6.88,15.66c-2.27,4-4.47,3.5-6.29-.71-2.61-6-5.28-12-7.9-18-1.7-3.93-.87-5.29,3.37-5.47,2.58-.11,5.16,0,7.73,0Zm7,5.49H50.2l6.52,14.39,1.65.1Z" transform="translate(0 3.66)" fill="#9896f1"/><path d="M44,770.72c2.67-6.79,5-12.88,7.47-18.87,1.15-2.71,2.78-5.22,4.19-7.82,2.11,2.3,5,4.27,6.18,7a119,119,0,0,1,5.49,16.29c.26.92-1,3.26-1.57,3.28C58.87,770.81,52,770.72,44,770.72Zm13.67-19.54-1.51.17L50,766.64H63.58Z" transform="translate(0 3.66)" fill="#9896f1"/><path d="M53,742.66C50.85,748.2,48.94,753.13,47,758c-1,2.53-2.09,5.05-3.29,7.5a11.23,11.23,0,0,1-2,2.26,12.3,12.3,0,0,1-2-2.34c-2.88-6.08-5.62-12.23-8.52-18.31-1.88-3.93-1.09-6.91,3.4-7.27a105.26,105.26,0,0,1,15.57.35C51.17,740.29,52.08,741.82,53,742.66Zm-4.36.05-14.51.68,7.53,16.72C44.07,754.14,46.05,749.21,48.66,742.71Z" transform="translate(0 3.66)" fill="#9896f1"/><path d="M27.75,744.06c3.69,8.32,7.3,16.25,10.59,24.31.26.63-1.63,3.06-2.62,3.13a154.24,154.24,0,0,1-16.93.19c-1,0-2.8-2.19-2.69-3.21C17,759.39,20,751.1,27.75,744.06Zm-.88,8-1.31-.38c-1.95,5.16-3.91,10.33-5.94,15.71H33.73C31.22,761.78,29,756.92,26.87,752.06Z" transform="translate(0 3.66)" fill="#9896f1"/></g></svg>