<?xml version="1.0" encoding="utf-8"?>
<!-- Generator: Adobe Illustrator 26.0.3, SVG Export Plug-In . SVG Version: 6.00 Build 0)  -->
<svg version="1.1" xmlns="http://www.w3.org/2000/svg" xmlns:xlink="http://www.w3.org/1999/xlink" x="0px" y="0px"
	 viewBox="0 0 1133.9 1133.9" style="enable-background:new 0 0 1133.9 1133.9;" xml:space="preserve">
<style type="text/css">
	.st0{display:none;}
	.st1{display:inline;}
	.st2{fill:#BF5700;}
	.st3{fill:none;stroke:#BF5700;stroke-width:17.0079;stroke-miterlimit:10;}
</style>
<g id="Layer_1" xmlns:cc="http://creativecommons.org/ns#" xmlns:dc="http://purl.org/dc/elements/1.1/" xmlns:rdf="http://www.w3.org/1999/02/22-rdf-syntax-ns#" class="st0">
	<g transform="matrix(1.25 0 0 -1.25 -390.11 305.09)" class="st1">
		<g transform="translate(574.03 241.88)">
			<path class="st2" d="M581.3-254c-28.5,7.8-63.1,2-90.9-6.5c-53.1-17-98.4-53.1-147.8-78.9c-26.1-11-61.9-13.3-85.9,1.8
				c-5.8,4.1-16.2,1.2-16.2,1.2c-3.3,2.5-7.1,3.5-11.6,1.8c-12-8.8-24.5,4.8-37.3-2.3c-12.8,7-25.3-6.5-37.3,2.3
				c-4.5,1.6-8.3,0.7-11.6-1.8c0,0-10.4,2.9-16.2-1.2c-24-15-59.9-12.8-85.9-1.8c-49.3,25.8-94.7,61.9-147.8,78.9
				c-27.8,8.5-62.4,14.3-90.9,6.5c-3.8-2.5-8-7-7-12.5c2-3.3,4-7.8,8.3-8.5c102.2,15.3,157.3-86.2,242.9-113
				c0.2-1.1-4.8-5.3-10.3-8.2c-12.1-6.7-30.1-4.1-31.3-20.6c3.3-10.3,15.8-14,24.8-18c21.3-12,46.8-2,66.1,7.8c2.3,2.3,6,1,7.8-1.3
				c-1.5-46.3,33.8-77.1,40.3-120.2c3.8-20-8.8-34.8-10.3-53.6c-0.2-6.9,5.3-2.3,8.2-25.3c1.3-4.2,11.7-15.9,21.1-20.8
				c8.7-3.4,18.8-4.4,29-4.2c10.2-0.3,20.3,0.7,29,4.2c9.4,4.9,19.9,16.6,21.1,20.8c2.9,23,8.4,18.4,8.2,25.3
				c-1.5,18.8-14,33.6-10.3,53.6c6.5,43.1,41.8,73.9,40.3,120.2c1.8,2.3,5.5,3.5,7.8,1.3c19.3-9.8,44.8-19.8,66.1-7.8
				c9,4,21.5,7.8,24.8,18c-1.3,16.5-19.2,13.9-31.3,20.6c-5.4,2.9-10.4,7.1-10.3,8.2c85.7,26.8,140.8,128.2,242.9,113
				c4.3,0.8,6.3,5.3,8.3,8.5C589.3-261,585-256.5,581.3-254"/>
		</g>
	</g>
</g>
<g id="Layer_2">
	<path class="st3" d="M1054,320.2L1054,320.2c-35.6-9.7-78.9-2.5-113.6,8.1c-66.4,21.3-123,66.4-184.7,98.6
		c-32.6,13.8-77.3,16.6-107.4-2.2c-7.2-5.1-20.2-1.5-20.2-1.5c-4.2-3.1-8.8-4.3-14.5-2.3c-15,11-30.7-5.9-46.6,2.8
		c-16-8.8-31.6,8.1-46.6-2.8c-5.7-2-10.3-0.8-14.5,2.3c0,0-13.1-3.6-20.2,1.5c-30,18.8-74.8,16-107.4,2.2
		c-61.7-32.2-118.3-77.3-184.7-98.6c-34.7-10.6-78-17.8-113.6-8.1c-4.7,3.1-10,8.8-8.8,15.7c2.5,4.1,5,9.7,10.3,10.6
		C209.1,327.4,278,454.2,385.1,487.7c0.2,1.4-6.1,6.6-12.8,10.2c-15.1,8.4-37.6,5.1-39.1,25.8c4.1,12.8,19.7,17.5,31,22.5
		c26.6,15,58.6,2.5,82.6-9.7c2.8-2.8,7.5-1.3,9.7,1.6c-1.9,57.9,42.3,96.4,50.4,150.3c4.7,25-11,43.5-12.8,67
		c-0.2,8.7,6.6,2.9,10.2,31.6c1.6,5.2,14.6,19.8,26.4,26c10.9,4.3,23.5,5.5,36.3,5.2c12.8,0.3,25.4-0.9,36.3-5.2
		c11.8-6.2,24.8-20.8,26.4-26c3.7-28.7,10.4-23,10.2-31.6c-1.9-23.5-17.5-41.9-12.8-67c8.1-53.8,52.3-92.4,50.4-150.3
		c2.2-2.8,6.9-4.4,9.7-1.6c24.1,12.2,56,24.7,82.6,9.7c11.3-5,26.9-9.7,31-22.5c-1.6-20.7-24-17.4-39.1-25.8
		c-6.8-3.7-13.1-8.9-12.8-10.2c107.1-33.5,175.9-160.3,303.7-141.2c5.3-0.9,7.8-6.6,10.3-10.6C1064,329,1058.7,323.3,1054,320.2z"/>
</g>
</svg>
